<?xml version="1.0" encoding="utf-8"?>
<!-- Generator: Adobe Illustrator 17.0.0, SVG Export Plug-In . SVG Version: 6.00 Build 0)  -->
<!DOCTYPE svg PUBLIC "-//W3C//DTD SVG 1.1//EN" "http://www.w3.org/Graphics/SVG/1.1/DTD/svg11.dtd">
<svg version="1.1" id="图层_1" xmlns="http://www.w3.org/2000/svg" xmlns:xlink="http://www.w3.org/1999/xlink" x="0px" y="0px"
	 width="308px" height="129px" viewBox="0 0 308 129" enable-background="new 0 0 308 129" xml:space="preserve">
<circle fill="#13438B" cx="7.18" cy="116.5" r="4.178"/>
<rect x="34.721" y="31.447" transform="matrix(0.8221 0.5693 -0.5693 0.8221 50.2905 -6.4525)" fill="#13438B" width="1.499" height="91.6"/>
<rect x="61.56" y="38.855" fill="#13438B" width="39.837" height="1.5"/>
<g>
	<g>
		<circle fill="#FFFFFF" cx="137.508" cy="43.394" r="39.713"/>
		<path fill="#BFBFBF" d="M137.508,83.787c-22.273,0-40.393-18.12-40.393-40.393s18.121-40.392,40.393-40.392
			s40.393,18.12,40.393,40.392S159.781,83.787,137.508,83.787z M137.508,4.361c-21.523,0-39.034,17.51-39.034,39.033
			s17.51,39.033,39.034,39.033s39.034-17.51,39.034-39.033S159.032,4.361,137.508,4.361z"/>
	</g>
	<g>
		<g>
			<defs>
				<circle id="SVGID_1_" cx="137.508" cy="43.394" r="37.371"/>
			</defs>
			<clipPath id="SVGID_2_">
				<use xlink:href="#SVGID_1_"  overflow="visible"/>
			</clipPath>
			<g clip-path="url(#SVGID_2_)">
				<rect x="97.452" y="3.4" fill="#F0EFF5" width="80.05" height="81.824"/>
				<rect x="99.95" y="57.163" fill="#FFFFFF" width="72.308" height="25.476"/>
				<g>
					<rect x="98.981" y="7.161" fill="#FFFFFF" width="74.277" height="20.751"/>
					<path fill="#DEDDE2" d="M173.597,28.252H98.641V6.821h74.956V28.252z M99.321,27.573h73.597V7.501H99.321V27.573z"/>
				</g>
				<g>
					<rect x="96.511" y="38.299" fill="#FFFFFF" width="79.547" height="20.751"/>
					<path fill="#DEDDE2" d="M176.397,59.39H96.171V37.959h80.226C176.397,37.959,176.397,59.39,176.397,59.39z M96.851,58.71
						h78.867V38.639H96.851V58.71z"/>
				</g>
				<polygon fill="#59D11A" points="109.182,18.983 112.611,22.066 109.182,22.066 				"/>
				<polygon fill="#9DBE53" points="108.426,17.461 108.632,22.067 106.228,19.622 				"/>
				<polygon fill="#00B3FE" points="110.778,19.08 115.388,19.132 112.813,21.395 				"/>
				<polygon fill="#6B59ED" points="112.689,17.22 112.741,12.61 115.005,15.185 				"/>
				<polygon fill="#5C84FF" points="112.306,18.672 115.388,15.243 115.388,18.672 				"/>
				<text transform="matrix(1 0 0 1 124.3481 20.2363)" font-family="'MicrosoftYaHei'" font-size="7.9932">朋友圈</text>
				<text transform="matrix(1 0 0 1 124.3481 51.5854)" font-family="'MicrosoftYaHei'" font-size="7.9932">扫一扫</text>
				<text transform="matrix(1 0 0 1 124.3481 72.7944)" font-family="'MicrosoftYaHei'" font-size="7.9932">摇一摇</text>
				<path fill="#06B4FF" d="M105.855,47.609c0,0-1.231-2.754,0.48-3.86c0,0,1.586-0.981,3.297,0c0,0,0.835,0.522,1.106,1.92h2.483
					c0,0,0.981,0.709,0,1.44h-5.842c0,0,0.25,1.753-0.647,2.504c0,0-0.543,0.438-0.897-0.271L105.855,47.609z"/>
				<path fill="#06B4FF" d="M115.857,49.352c0,0,1.231,2.754-0.48,3.86c0,0-1.586,0.981-3.297,0c0,0-0.835-0.522-1.106-1.92h-2.483
					c0,0-0.981-0.709,0-1.44h5.842c0,0-0.25-1.753,0.647-2.504c0,0,0.543-0.438,0.897,0.271L115.857,49.352z"/>
				<g>
					<g>
						<path fill="#90D3FD" d="M116.153,72.797c0.107,0.308-0.056,0.644-0.364,0.75l-4.383,1.519
							c-0.308,0.107-0.644-0.056-0.75-0.364l-2.821-8.142c-0.107-0.308,0.056-0.644,0.364-0.75l4.383-1.519
							c0.308-0.107,0.644,0.056,0.75,0.364L116.153,72.797z"/>
						<path fill="#FFFFFF" d="M115.475,72.288c0.089,0.258-0.047,0.539-0.305,0.628l-3.667,1.271
							c-0.258,0.089-0.539-0.047-0.628-0.305l-2.361-6.814c-0.089-0.258,0.047-0.539,0.305-0.628l3.667-1.271
							c0.258-0.089,0.539,0.047,0.628,0.305L115.475,72.288z"/>
					</g>
					
						<ellipse transform="matrix(-0.1585 -0.9874 0.9874 -0.1585 65.4015 190.0806)" fill="#06B4FF" cx="113.702" cy="67.17" rx="0.6" ry="1.472"/>
					
						<ellipse transform="matrix(-0.1585 -0.9874 0.9874 -0.1585 64.2106 191.8418)" fill="#06B4FF" cx="113.857" cy="68.558" rx="0.6" ry="1.629"/>
					
						<ellipse transform="matrix(-0.1585 -0.9874 0.9874 -0.1585 63.5499 193.9309)" fill="#06B4FF" cx="114.417" cy="69.884" rx="0.6" ry="1.413"/>
					
						<ellipse transform="matrix(-0.1585 -0.9874 0.9874 -0.1585 62.8051 196.0462)" fill="#06B4FF" cx="114.946" cy="71.259" rx="0.514" ry="1.212"/>
					<path fill="#06B4FF" d="M109.197,67.167c0,0,1.13,0.683,1.695,0.637c0,0,0.892,0.845,0,0.994c0,0-1.368,0.109-1.695-0.466
						V67.167z"/>
				</g>
			</g>
		</g>
	</g>
</g>
<g>
	<rect x="191.141" y="3.385" fill="#FFFFFF" width="75.834" height="75.834"/>
	<g>
		<path fill="#13438B" d="M228.02,9.797v1.729h-1.869V8.068h1.963V5.965h-5.701v5.841h-1.963v7.383h-1.916v-5.608h-3.832v3.738
			h-2.103v1.823h-1.683l-0.094,2.009h-7.711v1.963h-1.963v2.009h2.009v1.916h3.786v-1.963h-1.916v-1.963h1.916v1.963h2.009v-1.869
			h1.916v1.916h3.786v2.056h3.832v1.823h2.103v-2.009h-2.196V25.03h-1.823v-1.869h1.916v1.916h3.738v-1.869h-1.823v-2.009h1.963
			v-5.655h1.916v-3.691h1.916v1.916h1.916v-1.916h1.916V9.796L228.02,9.797L228.02,9.797z M216.571,21.199h-1.963v2.009h-1.869
			l0.046-3.786h2.056v-2.103h1.729v3.88H216.571z"/>
		<polygon fill="#13438B" points="212.879,13.769 212.879,9.843 216.711,9.843 216.711,7.974 218.44,7.974 218.44,9.75 220.59,9.75 
			220.59,5.965 216.477,5.965 216.477,7.834 212.692,7.834 212.692,9.703 210.87,9.703 210.87,7.693 208.907,7.693 208.813,19.143 
			210.916,19.143 210.916,13.769 		"/>
		<polygon fill="#13438B" points="197.372,21.176 199.414,21.176 199.414,25.039 201.149,25.039 201.149,27.08 195.551,27.08 
			195.551,32.709 197.427,32.709 197.427,30.832 199.303,30.832 199.303,28.956 201.345,28.956 201.345,30.943 199.524,30.943 
			199.524,34.585 197.538,34.585 197.538,38.337 195.717,38.337 195.717,40.103 197.483,40.103 197.538,38.337 201.07,38.337 
			201.07,32.598 203.001,32.598 203.001,30.612 204.987,30.612 204.987,28.956 206.919,28.956 206.919,30.888 205.208,30.888 
			205.208,32.543 206.974,32.543 206.974,34.475 209.126,34.475 209.126,36.571 206.919,36.571 206.919,34.806 205.098,34.806 
			205.098,32.709 203.276,32.709 203.276,36.516 206.919,36.571 206.919,38.392 205.153,38.392 205.153,40.048 208.905,40.048 
			208.905,43.966 207.084,43.966 207.084,42.255 205.153,42.255 205.153,44.242 203.276,44.242 203.276,45.952 201.18,45.952 
			201.18,42.365 199.469,42.365 199.469,45.952 195.551,45.952 195.551,48.049 193.454,48.049 193.454,44.131 197.317,44.131 
			197.317,42.255 195.441,42.255 195.441,40.434 193.565,40.434 193.565,38.392 195.386,38.392 195.386,36.516 193.565,36.516 
			193.565,25.039 195.551,25.039 195.551,23.438 197.427,23.438 		"/>
		<polygon fill="#13438B" points="209.107,28.9 210.843,28.9 210.843,30.88 212.655,30.88 212.655,28.775 218.385,28.775 
			218.385,30.529 214.818,30.529 214.818,34.622 216.631,34.622 216.631,32.634 218.619,32.634 218.619,30.587 222.36,30.587 
			222.36,36.492 216.748,36.492 216.748,38.363 218.326,38.363 218.326,42.164 219.847,42.164 219.847,44.268 218.56,44.268 
			218.56,42.456 216.455,42.456 216.455,38.539 214.76,38.539 214.76,36.492 212.772,36.492 212.772,38.539 214.351,38.539 
			214.351,42.222 215.988,42.222 215.988,44.385 218.092,44.385 218.092,45.847 216.572,45.847 216.572,48.01 222.302,48.01 
			222.302,53.74 229.844,53.74 229.844,55.611 228.031,55.611 228.031,57.54 230.078,57.54 230.078,60.989 232.124,60.989 
			232.124,59.528 234.053,59.528 234.053,55.611 235.924,55.611 235.924,51.927 237.854,51.927 237.854,57.365 236.042,57.365 
			236.042,61.223 233.878,61.223 233.878,63.153 228.324,63.153 228.324,61.457 224.173,61.457 224.173,59.528 226.277,59.528 
			226.277,57.423 224.114,57.423 224.114,55.493 218.443,55.493 218.443,57.482 223.887,57.482 223.887,59.312 218.413,59.312 
			218.413,63.236 216.524,63.236 216.524,59.651 214.78,59.651 214.78,57.665 216.669,57.665 216.669,53.693 218.51,53.693 
			218.51,49.769 216.621,49.769 216.669,53.693 214.586,53.693 214.586,49.866 212.89,49.866 212.89,53.499 208.967,53.499 
			208.967,51.852 210.662,51.852 210.662,47.976 214.586,47.976 214.586,44.004 212.697,44.004 212.697,40.322 210.711,40.322 
			210.711,34.606 212.745,34.606 212.745,32.62 210.807,32.62 210.843,30.88 208.967,30.88 		"/>
		<polygon fill="#13438B" points="262.353,38.497 262.353,36.517 260.481,36.517 260.481,38.336 258.555,38.336 258.555,42.135 
			254.97,42.135 254.97,38.444 252.991,38.444 252.991,36.571 254.81,36.571 254.81,34.538 256.629,34.538 256.629,36.357 
			258.502,36.357 258.502,34.752 260.534,34.752 260.534,30.472 258.662,30.472 258.662,32.772 254.917,32.772 254.917,34.217 
			252.991,34.217 252.991,36.25 250.958,36.25 250.958,38.39 249.193,38.39 249.193,36.517 250.691,36.517 250.691,34.592 
			252.51,34.592 252.51,32.666 254.596,32.666 254.596,30.793 252.83,30.793 252.83,28.867 249.246,28.867 249.246,30.953 
			245.394,30.953 245.394,34.752 247.053,34.752 247.053,32.986 248.978,32.986 248.978,34.484 247.374,34.484 247.374,36.517 
			245.287,36.517 245.287,40.53 243.254,40.53 243.254,43.686 241.649,43.686 241.649,42.349 239.724,42.349 239.724,40.476 
			241.328,40.476 241.328,34.592 239.616,34.592 239.616,32.826 243.361,32.826 243.361,30.686 239.67,30.686 239.67,27.155 
			241.649,27.155 241.649,24.962 233.785,24.962 233.785,21.217 235.711,21.217 235.711,23.25 237.69,23.25 237.69,15.653 
			235.818,15.653 235.818,11.533 233.946,11.533 233.946,9.875 237.797,9.875 237.797,7.896 239.51,7.896 239.51,9.768 
			241.382,9.768 241.382,13.513 239.616,13.513 239.616,11.641 237.583,11.641 237.583,13.46 239.402,13.46 239.402,15.546 
			241.435,15.546 241.435,13.727 243.361,13.727 243.361,11.908 245.394,11.908 245.394,5.97 241.275,5.97 241.275,7.789 
			239.51,7.789 239.51,5.97 237.53,5.97 237.53,7.682 233.946,7.682 233.946,5.97 231.913,5.97 231.913,11.641 233.678,11.641 
			233.678,17.258 235.765,17.258 235.765,19.452 233.785,19.452 233.785,17.472 231.966,17.472 231.966,19.505 230.04,19.505 
			230.04,15.225 226.081,15.225 226.081,17.044 224.162,17.044 224.162,19.298 226.073,19.298 226.073,17.292 227.984,17.292 
			227.984,21.304 222.366,21.304 222.366,23.209 225.978,23.209 225.978,26.94 227.984,26.94 227.984,23.024 229.799,23.024 
			229.799,21.4 231.805,21.4 231.805,26.845 230.181,26.845 230.181,32.003 231.614,32.003 231.614,30.857 233.716,30.857 
			233.716,36.398 238.397,36.398 239.734,36.398 239.734,40.219 237.155,40.219 237.155,42.417 239.634,42.417 239.634,44.305 
			241.438,44.305 241.438,45.828 237.349,45.828 237.349,49.798 243.243,49.798 243.243,47.913 241.438,47.913 241.438,46.029 
			243.563,46.029 243.563,44.064 247.092,44.064 247.092,45.868 245.368,45.868 245.368,49.878 243.443,49.878 243.443,51.682 
			250.98,51.682 250.98,53.646 252.905,53.646 252.905,57.455 254.909,57.455 254.909,49.918 256.793,49.918 256.793,48.02 
			260.695,48.02 260.695,46.201 262.728,46.201 262.728,44.328 264.44,44.328 264.44,38.497 		"/>
		<polygon fill="#13438B" points="201.588,47.982 203.247,47.982 203.247,49.869 204.963,49.869 204.963,47.846 207.03,47.846 
			207.03,49.826 209.009,49.826 209.009,51.852 207.074,51.852 207.074,49.869 205.183,49.869 205.183,51.761 206.898,51.761 
			206.898,53.432 205.095,53.432 205.095,55.676 207.03,55.676 207.03,53.74 209.054,53.74 209.054,57.523 203.247,57.523 
			203.247,55.588 201.18,55.588 201.18,53.696 203.247,53.696 203.247,51.805 201.18,51.805 201.18,48.066 199.156,48.066 
			199.156,45.952 201.588,45.952 		"/>
		<polygon fill="#13438B" points="243.371,28.965 245.061,28.965 245.061,27.02 247.09,27.02 247.09,24.992 249.119,24.992 
			249.119,27.19 254.615,27.19 254.615,22.962 262.477,22.962 262.477,25.076 260.702,25.076 260.702,27.19 262.392,27.19 
			262.392,28.796 260.702,28.796 260.702,30.91 262.561,30.91 262.561,34.968 264.422,34.968 264.422,22.962 262.899,22.962 
			262.899,20.849 252.839,20.849 252.839,22.878 250.979,22.878 250.979,25.161 249.119,24.992 249.119,23.3 245.315,23.3 
			245.315,26.598 243.371,26.598 		"/>
		<polygon fill="#13438B" points="254.868,29.049 256.728,29.049 256.728,26.851 258.673,26.851 258.673,30.825 254.868,30.825 		
			"/>
		<polygon fill="#13438B" points="245.399,21.187 249.035,21.187 249.035,15.607 247.259,15.607 247.259,19.158 245.315,19.158 
			245.315,17.552 243.455,17.552 243.455,19.496 245.25,19.496 		"/>
		<polygon fill="#13438B" points="239.645,17.477 241.514,17.523 241.514,21.12 243.335,21.12 243.335,23.502 241.467,23.502 
			241.467,21.447 239.505,21.447 		"/>
		<polygon fill="#13438B" points="250.98,53.752 249.277,53.752 249.277,55.613 247.344,55.613 247.344,53.68 245.267,53.68 
			245.267,57.403 243.477,57.403 243.477,55.899 241.544,55.899 241.544,53.393 243.477,53.393 243.477,51.89 239.611,51.89 
			239.54,57.689 237.678,57.689 237.678,59.265 239.611,59.265 239.611,63.203 241.544,63.203 241.544,65.422 243.477,65.422 
			243.477,61.055 241.401,61.055 241.401,57.689 243.334,57.689 243.334,59.551 247.344,59.551 247.344,57.26 250.98,57.26 		"/>
		<polygon fill="#13438B" points="256.793,49.918 258.728,49.918 258.728,51.747 260.948,51.747 260.948,50.028 262.595,50.028 
			262.595,48.238 264.385,48.238 264.385,51.818 262.523,51.818 262.523,53.393 264.385,53.393 264.385,59.479 260.375,59.479 
			260.375,57.618 262.738,57.618 262.738,55.613 260.447,55.613 260.447,53.608 256.652,53.608 		"/>
		<path fill="#13438B" d="M258.585,63.06v-1.862h-1.862v-1.647h1.862v-3.866h-1.718l-0.358,3.437h-3.604v-1.504h-2.267v1.933h-3.58
			v5.871h-3.723v3.508h1.79v3.508h2.148v-3.723h5.513v2.22h1.79v-1.718h2.076v-2.22h2.076v-2.005h1.718v-1.933L258.585,63.06
			L258.585,63.06z M254.719,66.997h-5.585v-5.656h5.585V66.997z"/>
		<polygon fill="#13438B" points="193.698,55.623 195.556,55.623 195.556,53.843 193.698,53.843 193.698,51.907 195.556,51.907 
			195.556,53.611 197.569,53.611 197.569,55.856 201.286,55.856 201.286,57.173 203.247,57.173 203.247,59.495 201.131,59.495 
			201.131,61.199 199.273,61.199 199.273,59.185 197.569,59.185 197.569,61.354 193.698,61.354 193.698,59.34 197.183,59.34 
			197.183,57.404 193.698,57.404 		"/>
		<polygon fill="#13438B" points="209.029,61.354 210.965,61.354 210.965,59.263 209.184,59.263 209.184,57.523 210.965,57.523 
			210.965,55.701 212.436,55.701 212.436,53.499 214.586,53.499 214.586,57.404 212.901,57.404 212.901,61.354 214.759,61.354 
			214.759,63.057 216.524,63.057 216.524,65.07 214.914,65.07 214.914,63.522 210.965,63.522 210.965,67.161 209.029,67.161 		"/>
		<polygon fill="#13438B" points="209.029,70.955 210.81,70.955 210.81,68.865 212.746,68.865 212.746,65.07 214.914,65.07 
			214.914,67.006 216.695,67.006 216.695,65.07 218.398,65.07 218.398,68.865 216.385,68.865 216.385,70.878 214.759,70.878 
			214.759,69.097 212.823,69.097 212.823,72.659 216.618,72.659 216.618,74.594 214.527,74.594 214.527,76.453 212.591,76.453 
			212.591,72.891 209.029,72.891 		"/>
		<polygon fill="#13438B" points="237.715,70.716 243.225,70.716 243.225,72.706 241.465,72.706 241.465,75.001 239.628,75.001 
			239.628,72.935 237.562,72.935 		"/>
		<polygon fill="#13438B" points="243.607,72.859 245.214,72.859 245.214,74.925 246.974,74.925 246.974,72.859 249.346,72.859 
			249.346,70.946 250.953,70.946 250.953,73.088 249.37,73.088 249.37,76.506 243.606,76.506 		"/>
		<polygon fill="#13438B" points="251.054,74.609 252.951,74.609 252.951,72.64 254.67,72.64 254.67,70.741 256.783,70.741 
			256.783,69.058 260.614,69.058 260.614,70.885 258.681,70.885 258.681,72.711 256.675,72.711 256.675,74.68 258.717,74.68 
			258.717,76.793 254.813,76.793 254.813,74.645 252.987,74.645 252.987,76.578 251.09,76.578 		"/>
		<polygon fill="#13438B" points="260.865,68.915 262.476,68.915 262.476,65.12 264.553,65.12 264.553,61.324 260.758,61.324 
			260.758,63.222 262.476,63.222 262.476,64.977 260.447,64.977 260.447,68.915 		"/>
		<polygon fill="#13438B" points="262.621,69.1 262.573,70.873 260.675,70.873 260.675,72.725 264.457,72.725 264.457,68.88 
			262.605,68.88 		"/>
		<polygon fill="#13438B" points="233.867,65.232 235.832,65.232 235.832,63.23 237.686,63.23 237.686,65.306 239.576,65.306 
			239.576,66.937 237.389,66.937 237.389,69.198 241.615,69.198 241.615,65.009 239.688,65.009 239.688,63.082 237.686,63.082 
			237.686,61.34 235.758,61.34 235.758,62.897 233.83,62.897 		"/>
		<polygon fill="#13438B" points="231.903,67.048 235.684,67.048 235.684,68.791 233.867,68.791 233.867,70.94 235.795,70.94 
			235.795,73.016 233.905,73.016 233.905,75.018 231.681,75.018 231.681,72.794 233.608,72.794 233.608,71.089 231.94,71.089 		"/>
		<polygon fill="#13438B" points="222.387,64.977 226.008,64.977 226.008,63.113 228.032,63.113 228.032,65.243 230.056,65.243 
			230.056,67.107 227.872,67.107 227.872,65.616 225.955,65.616 225.955,69.185 224.197,69.185 224.197,72.913 226.274,72.913 
			226.274,71.102 228.032,71.102 228.032,72.913 229.949,72.913 229.949,75.043 220.416,75.043 220.416,76.641 216.741,76.641 
			216.741,74.67 220.416,74.67 220.416,72.966 218.712,72.966 218.712,68.812 220.256,68.812 220.256,72.487 222.173,72.487 
			222.173,68.971 224.038,68.971 224.038,67.267 222.28,67.267 222.28,68.758 220.469,68.758 220.469,66.894 222.387,66.894 		"/>
		<polygon fill="#13438B" points="197.328,51.741 199.26,51.741 199.26,53.834 201.18,53.834 201.18,51.805 199.421,51.805 
			199.421,49.567 197.328,49.567 		"/>
		<polygon fill="#13438B" points="209.082,46.106 210.933,46.106 210.933,44.335 212.704,44.335 212.704,46.029 211.081,46.029 
			211.081,47.976 209.036,47.976 		"/>
		<polygon fill="#13438B" points="228.129,51.735 229.912,51.735 229.912,53.672 232.002,53.672 232.002,51.939 233.888,51.939 
			233.888,50.614 228.078,50.614 		"/>
		<polygon fill="#13438B" points="223.827,30.815 225.876,30.815 225.876,32.044 228.13,32.044 228.13,28.663 226.081,28.663 
			226.081,26.94 224.237,26.94 224.237,24.974 222.226,24.974 222.226,26.819 223.827,26.819 		"/>
		<rect x="208.996" y="25.174" fill="#13438B" width="2.095" height="2.095"/>
		<rect x="205.261" y="44.397" fill="#13438B" width="1.913" height="1.913"/>
		<rect x="205.079" y="59.248" fill="#13438B" width="2.187" height="2.187"/>
		<rect x="220.384" y="61.252" fill="#13438B" width="3.735" height="2.095"/>
		<rect x="224.302" y="50.593" fill="#13438B" width="2.004" height="1.185"/>
		<rect x="247.26" y="7.865" fill="#13438B" width="1.64" height="5.648"/>
		<rect x="249.265" y="21.348" fill="#13438B" width="1.731" height="1.731"/>
		<rect x="243.434" y="34.693" fill="#13438B" width="1.96" height="1.96"/>
		<rect x="251.178" y="62.983" fill="#13438B" width="2.004" height="2.004"/>
		<rect x="235.69" y="74.553" fill="#13438B" width="2.187" height="2.187"/>
		<rect x="262.657" y="74.735" fill="#13438B" width="2.005" height="2.005"/>
		<path fill="#13438B" d="M250.897,5.813v13.738h13.738V5.813H250.897z M262.394,17.407h-9.451V7.956h9.451V17.407z"/>
		<rect x="254.989" y="9.807" fill="#13438B" width="5.748" height="5.748"/>
		<path fill="#13438B" d="M193.495,5.813v13.738h13.738V5.813H193.495z M204.991,17.407h-9.451V7.956h9.451
			C204.991,7.956,204.991,17.407,204.991,17.407z"/>
		<rect x="197.587" y="9.807" fill="#13438B" width="5.748" height="5.748"/>
		<path fill="#13438B" d="M193.495,62.929v13.738h13.738V62.929H193.495z M204.991,74.524h-9.451v-9.451h9.451
			C204.991,65.073,204.991,74.524,204.991,74.524z"/>
		<rect x="197.587" y="66.924" fill="#13438B" width="5.748" height="5.748"/>
		<g>
			<path fill="#13438B" d="M237.596,50.35c0,0.473-0.383,0.856-0.856,0.856h-16.325c-0.473,0-0.856-0.383-0.856-0.856V34.025
				c0-0.473,0.383-0.856,0.856-0.856h16.325c0.473,0,0.856,0.383,0.856,0.856V50.35z"/>
			<path fill="#FFFFFF" d="M237.19,49.982c0,0.451-0.366,0.817-0.817,0.817h-15.59c-0.451,0-0.817-0.366-0.817-0.817v-15.59
				c0-0.451,0.366-0.817,0.817-0.817h15.59c0.451,0,0.817,0.366,0.817,0.817V49.982z"/>
			<g>
				<path fill="#13438B" d="M233.213,39.951c1.253-1.286,1.234-3.339-0.037-4.602c-1.263-1.271-3.316-1.29-4.602-0.037
					c-0.616,0.6-0.745,1.119-0.903,1.797c-0.1,0.43-0.331,0.857-0.639,1.212c-0.355,0.309-0.782,0.539-1.212,0.639
					c-0.678,0.157-1.198,0.287-1.797,0.903c-0.004,0.004-0.008,0.009-0.012,0.013c-0.011,0.011-0.022,0.02-0.032,0.031
					c-1.271,1.263-1.29,3.316-0.037,4.602c0.6,0.616,1.119,0.745,1.797,0.903c0.431,0.1,0.857,0.331,1.212,0.639
					c0.308,0.355,0.539,0.782,0.639,1.212c0.157,0.678,0.287,1.198,0.903,1.798c1.286,1.253,3.339,1.234,4.602-0.037
					c1.271-1.263,1.29-3.316,0.037-4.602c-0.6-0.616-1.119-0.745-1.797-0.903c-0.431-0.1-0.857-0.331-1.212-0.639
					c-0.162-0.186-0.301-0.392-0.413-0.608c0.12-0.278,0.29-0.545,0.493-0.78c0.355-0.309,0.782-0.539,1.212-0.639
					c0.507-0.118,0.926-0.22,1.355-0.521"/>
				<g>
					<path fill="#40BFEC" d="M225.283,39.605c0,0-0.506-0.93,1.425-1.437c0,0,3.168-0.695,3.427-1.437c0,0,0.589,0.93-1.778,1.449
						C228.356,38.181,225.553,38.758,225.283,39.605z"/>
					<path fill="#D3D5E4" d="M225.25,41.39c0,0-0.506-0.93,1.425-1.437c0,0,3.168-0.695,3.427-1.437c0,0,0.589,0.93-1.778,1.449
						C228.324,39.965,225.521,40.542,225.25,41.39z"/>
					<path fill="#40BFEC" d="M225.022,45.649c0,0,0.023-1.299,3.737-1.739c0,0,1.238-0.231,1.312-0.84c0,0,0.514-1.102-1.69-1.815
						c0,0-2.904-0.862-3.1-1.648c0,0-0.311,0.841,1.158,1.428c0,0,2.644,0.829,3.085,1.385c0,0,0.829,0.808-1.406,1.154
						c0,0-1.459,0.241-2.015,0.462C226.105,44.035,224.818,44.38,225.022,45.649z"/>
					<path fill="#D3D5E4" d="M225.022,47.377c0,0,0.023-1.299,3.737-1.739c0,0,1.238-0.231,1.312-0.84c0,0,0.514-1.102-1.69-1.815
						c0,0-2.904-0.862-3.1-1.648c0,0-0.311,0.841,1.158,1.428c0,0,2.644,0.829,3.085,1.385c0,0,0.829,0.808-1.406,1.154
						c0,0-1.459,0.241-2.015,0.462C226.105,45.764,224.818,46.109,225.022,47.377z"/>
				</g>
			</g>
		</g>
	</g>
</g>
</svg>
