<?xml version="1.0" encoding="utf-8"?>
<!-- Generator: Adobe Illustrator 16.0.0, SVG Export Plug-In . SVG Version: 6.00 Build 0)  -->
<!DOCTYPE svg PUBLIC "-//W3C//DTD SVG 1.1//EN" "http://www.w3.org/Graphics/SVG/1.1/DTD/svg11.dtd">
<svg version="1.1" id="图层_1" xmlns="http://www.w3.org/2000/svg" xmlns:xlink="http://www.w3.org/1999/xlink" x="0px" y="0px"
	 width="78px" height="78px" viewBox="0 0 78 78" enable-background="new 0 0 78 78" xml:space="preserve">
<circle fill="#16438C" cx="39.186" cy="38.993" r="37.682"/>
<path fill="#FFFFFF" d="M35.772,56.368c-0.555,0.904-1.622,1.258-2.383,0.79L16.182,46.597c-0.761-0.468-0.929-1.579-0.374-2.482
	l0,0c0.555-0.903,1.622-1.258,2.383-0.79l17.207,10.562C36.159,54.354,36.327,55.465,35.772,56.368L35.772,56.368z"/>
<path fill="#FFFFFF" d="M62.171,25.06c0.9,0.804,0.755,2.438-0.328,3.654L37.367,56.181c-1.082,1.216-2.69,1.551-3.592,0.746l0,0
	c-0.901-0.802-0.755-2.438,0.328-3.653l24.476-27.467C59.661,24.592,61.27,24.258,62.171,25.06L62.171,25.06z"/>
</svg>
