<?xml version="1.0" encoding="utf-8"?>
<!-- Generator: Adobe Illustrator 16.0.0, SVG Export Plug-In . SVG Version: 6.00 Build 0)  -->
<!DOCTYPE svg PUBLIC "-//W3C//DTD SVG 1.1//EN" "http://www.w3.org/Graphics/SVG/1.1/DTD/svg11.dtd">
<svg version="1.1" id="图层_1" xmlns="http://www.w3.org/2000/svg" xmlns:xlink="http://www.w3.org/1999/xlink" x="0px" y="0px"
	 width="30px" height="30px" viewBox="0 0 30 30" enable-background="new 0 0 30 30" xml:space="preserve">
<g>
	<path fill="#FFFFFF" d="M27.667,26.396H2.339c-1.005,0-1.708-0.903-1.708-2.196V5.239C0.617,4.999,0.589,4.529,0.93,4.085
		l0.359-0.469l0.683-0.011c0.068-0.005,0.138-0.003,0.201,0h0.511l0.015,0.035h24.968c1.542,0,1.709,1.118,1.709,1.598V24.2
		C29.376,25.493,28.673,26.396,27.667,26.396z M3.027,24.001h23.954V6.036H3.027V24.001z"/>
</g>
<g>
	<path fill="#FFFFFF" d="M15.076,17.359c-1.349,0-2.696-0.496-3.75-1.489L0.927,5.691l1.719-1.756l10.383,10.162
		c1.132,1.067,2.995,1.061,4.134-0.033L27.404,4.008l1.722,1.753L18.875,15.829C17.811,16.85,16.443,17.359,15.076,17.359z"/>
</g>
<g>
	
		<rect x="16.963" y="17.632" transform="matrix(0.5952 0.8036 -0.8036 0.5952 24.8916 -11.6893)" fill="#FFFFFF" width="14.17" height="2.458"/>
</g>
<g>
	
		<rect x="4.818" y="11.723" transform="matrix(0.7978 0.603 -0.603 0.7978 12.5955 0.1683)" fill="#FFFFFF" width="2.457" height="14.274"/>
</g>
<g>
	<rect x="0.623" y="3.603" fill="none" width="28.752" height="22.793"/>
</g>
</svg>
