<?xml version="1.0" encoding="utf-8"?>
<!-- Generator: Adobe Illustrator 16.0.0, SVG Export Plug-In . SVG Version: 6.00 Build 0)  -->
<!DOCTYPE svg PUBLIC "-//W3C//DTD SVG 1.1//EN" "http://www.w3.org/Graphics/SVG/1.1/DTD/svg11.dtd">
<svg version="1.1" id="图层_1" xmlns="http://www.w3.org/2000/svg" xmlns:xlink="http://www.w3.org/1999/xlink" x="0px" y="0px"
	 width="150px" height="32px" viewBox="0 0 150 32" enable-background="new 0 0 150 32" xml:space="preserve">
<g>
	<defs>
		<rect id="SVGID_1_" x="9.116" y="0.583" width="131.768" height="30.833"/>
	</defs>
	<clipPath id="SVGID_2_">
		<use xlink:href="#SVGID_1_"  overflow="visible"/>
	</clipPath>
	<path clip-path="url(#SVGID_2_)" fill="#FFFFFF" d="M35.182,17.266l-0.642-0.07C34.54,17.195,34.906,17.273,35.182,17.266"/>
	<path clip-path="url(#SVGID_2_)" fill="#FFFFFF" d="M15.978,9.54h1.787c1.621,0,2.698,0.062,3.231,0.188
		c0.715,0.161,1.273,0.47,1.677,0.926c0.403,0.458,0.667,1.093,0.792,1.908c0.125,0.815,0.053,1.983-0.215,3.506
		c-0.269,1.522-0.615,2.726-1.04,3.606c-0.423,0.885-0.883,1.518-1.376,1.902c-0.493,0.385-1.076,0.658-1.75,0.818
		c-0.515,0.127-1.327,0.188-2.438,0.188h-2.969l1.512-8.908h-3.977L9.115,25.901h7.483c1.469,0,2.667-0.139,3.593-0.416
		c1.24-0.375,2.263-0.9,3.072-1.57c1.069-0.887,1.978-2.047,2.722-3.48c0.611-1.174,1.058-2.57,1.344-4.191
		c0.326-1.845,0.385-3.397,0.176-4.655c-0.208-1.259-0.647-2.322-1.319-3.19c-0.67-0.869-1.553-1.474-2.648-1.814
		c-0.815-0.251-2.043-0.376-3.683-0.376h-9.807L9.44,9.54H15.978z"/>
	<path clip-path="url(#SVGID_2_)" fill="#FFFFFF" d="M29.392,18.567c0.222-1.253,0.744-2.467,1.57-3.641
		c0.825-1.172,1.857-2.068,3.1-2.686c1.242-0.619,2.562-0.928,3.958-0.928c2.159,0,3.804,0.701,4.936,2.103
		c1.132,1.401,1.51,3.173,1.132,5.314c-0.381,2.158-1.393,3.947-3.036,5.365c-1.643,1.42-3.522,2.131-5.635,2.131
		c-1.308,0-2.502-0.295-3.585-0.887s-1.832-1.459-2.249-2.6C29.167,21.597,29.104,20.206,29.392,18.567 M33.226,18.769
		c-0.25,1.416-0.105,2.5,0.434,3.252c0.54,0.752,1.302,1.129,2.287,1.129s1.878-0.377,2.678-1.129
		c0.8-0.752,1.326-1.846,1.578-3.277c0.247-1.399,0.103-2.473-0.432-3.225c-0.535-0.753-1.295-1.129-2.279-1.129
		c-0.986,0-1.881,0.376-2.685,1.129C34.002,16.271,33.475,17.354,33.226,18.769"/>
	<path clip-path="url(#SVGID_2_)" fill="#FFFFFF" d="M58.863,25.901h-3.506l0.37-2.094c-0.726,0.813-1.521,1.42-2.383,1.818
		c-0.862,0.398-1.698,0.6-2.503,0.6c-1.64,0-2.926-0.662-3.863-1.982c-0.936-1.32-1.195-3.164-0.778-5.527
		c0.426-2.419,1.318-4.257,2.679-5.516c1.359-1.258,2.908-1.888,4.645-1.888c1.595,0,2.857,0.663,3.788,1.989l1.25-7.094h3.775
		L58.863,25.901z M50.1,18.46c-0.269,1.521-0.252,2.623,0.049,3.305c0.435,0.986,1.199,1.477,2.292,1.477
		c0.868,0,1.673-0.369,2.413-1.107c0.739-0.738,1.238-1.842,1.497-3.311c0.29-1.64,0.203-2.819-0.262-3.541
		c-0.464-0.721-1.158-1.081-2.081-1.081c-0.896,0-1.708,0.356-2.438,1.068C50.84,15.981,50.35,17.045,50.1,18.46"/>
	<path clip-path="url(#SVGID_2_)" fill="#38BEED" d="M72.47,13.453l-0.717-0.079C71.752,13.375,72.163,13.461,72.47,13.453"/>
	<path clip-path="url(#SVGID_2_)" fill="#38BEED" d="M88.563,6.87c0,0-1.868-2.024-3.644-1.585c0,0-1.169,0.332-1.136-2.188
		c0,0,0.41-2.899-3.121-2.47c0,0-5.232,0.311-6.714,6.033c-0.364,1.405-0.583,3.127,3.38,4.499c0.211-0.013,0.424-0.021,0.639-0.021
		c2.41,0,4.245,0.783,5.509,2.347c0.342,0.424,0.621,0.878,0.839,1.362c-0.027-1.724-0.514-3.843-2.448-5.114
		c0,0-0.178-0.433,0.188-0.383c0,0,3.649-0.348,4.263,1.567c0.154,0.486-0.046,1.501,0.109,2.032
		c0.092,0.322,0.347,0.412,1.316-0.235C87.743,12.713,91.496,10.398,88.563,6.87"/>
	<path clip-path="url(#SVGID_2_)" fill="#38BEED" d="M68.506,19.233c0.247-1.4,0.831-2.755,1.752-4.064
		c0.92-1.31,2.073-2.309,3.459-3c1.387-0.689,2.859-1.034,4.419-1.034c2.408,0,4.245,0.783,5.508,2.347
		c1.263,1.563,1.685,3.541,1.264,5.93c-0.425,2.408-1.554,4.404-3.388,5.988c-1.833,1.584-3.93,2.377-6.289,2.377
		c-1.46,0-2.793-0.33-4.001-0.99c-1.209-0.658-2.044-1.625-2.51-2.9C68.255,22.612,68.183,21.062,68.506,19.233 M72.784,19.458
		c-0.278,1.578-0.116,2.787,0.485,3.629c0.602,0.838,1.453,1.26,2.552,1.26s2.096-0.422,2.987-1.26
		c0.893-0.842,1.481-2.061,1.763-3.66c0.275-1.559,0.115-2.757-0.482-3.598c-0.596-0.839-1.444-1.26-2.544-1.26
		c-1.101,0-2.099,0.421-2.996,1.26C73.651,16.669,73.063,17.878,72.784,19.458"/>
	<path clip-path="url(#SVGID_2_)" fill="#38BEED" d="M73.257,27.618c0.111,0.035,0.222,0.07,0.337,0.107
		c0.581,0.184,1.74,0.98,1.516,1.912c0,0-2.07-0.051-1.417,0.734c0.113,0.137,0.262,0.324,2.052,0.162c0,0,3.327,0.846,3.865,0.883
		c0.163,0.012,0.795-0.262,0.05-0.648l-1.678-0.496c0,0,1.883-0.08,1.952-0.137c0.126-0.105,0.441-0.443-0.41-0.51
		c-0.447-0.031-1.791-0.01-1.791-0.01l1.355-0.238c0,0,0.436-0.385-0.25-0.473l-2.05-0.061c0,0-0.908-0.225-0.908-1.107
		c0,0,0.485-0.043,0.972-0.168c-0.633,0.131-1.287,0.197-1.963,0.197C74.325,27.767,73.782,27.716,73.257,27.618"/>
	<path clip-path="url(#SVGID_2_)" fill="#38BEED" d="M81.177,25.786c-1.086,0.939-2.269,1.4-3.541,1.783
		c0.034,0.057,0.06,0.049,0.022,0.182c0,0-1.207,0.012-1.393,0.234c0,0-0.395,0.451,0.336,0.475c0.345,0.008,1.037-0.135,1.38-0.09
		c0.547,0.072,1.254,0.406,2.125,0.566c0,0,1.131,0.383,1.565,0.283c0,0,0.448-0.313-0.261-0.646l-1.08-0.326
		c0,0,1.433,0.164,1.864-0.012c0.167-0.068,0.473-0.459-0.411-0.598l-1.172-0.129c-0.177-0.014-0.307-0.033-0.307-0.033l0.307,0.033
		c0.312,0.027,0.772,0.363,0.936,0.242c0.107-0.08,0.236,0.152-0.372,0.152h-1.892c0,0,2.985-0.857,4.477-5.139h0.05h-0.039
		C83.176,23.622,82.313,24.804,81.177,25.786"/>
	<path clip-path="url(#SVGID_2_)" fill="#38BEED" d="M80.612,27.509l-0.307-0.033C80.306,27.476,80.436,27.495,80.612,27.509"/>
	<path clip-path="url(#SVGID_2_)" fill="#38BEED" d="M68.746,23.89c-0.465-1.275-0.536-2.826-0.214-4.656
		c0.136-0.771,0.379-1.529,0.721-2.274c-0.388,0.119-0.944,0.226-1.742,0.275c0,0-2.322-2.088-3.813,1.044
		c0,0-0.637,2.018,0.805,2.764c0,0-0.292,0.848,0.24,1.563c1.283,1.727,2.703,2.752,6.311,4.064
		C69.956,26.013,69.184,25.089,68.746,23.89"/>
	<path clip-path="url(#SVGID_2_)" fill="#FFFFFF" d="M99.866,20.739l0.424-2.404h6.206l-1.002,5.682
		c-0.706,0.584-1.671,1.098-2.893,1.543c-1.224,0.443-2.422,0.666-3.596,0.666c-1.492,0-2.738-0.314-3.736-0.939
		c-0.999-0.625-1.673-1.52-2.025-2.686c-0.354-1.164-0.409-2.43-0.167-3.799c0.262-1.485,0.806-2.804,1.632-3.959
		c0.825-1.154,1.894-2.04,3.202-2.655c0.997-0.474,2.178-0.711,3.539-0.711c1.771,0,3.088,0.372,3.953,1.114
		c0.864,0.742,1.324,1.77,1.378,3.08l-2.954,0.535c-0.077-0.701-0.358-1.254-0.841-1.659c-0.484-0.405-1.14-0.608-1.971-0.608
		c-1.258,0-2.328,0.4-3.212,1.198c-0.882,0.797-1.463,1.98-1.739,3.549c-0.299,1.695-0.146,2.963,0.457,3.811
		c0.603,0.846,1.514,1.27,2.732,1.27c0.604,0,1.229-0.119,1.878-0.355s1.219-0.523,1.713-0.861l0.319-1.809H99.866z"/>
	<path clip-path="url(#SVGID_2_)" fill="#FFFFFF" d="M114.347,22.694l2.644,0.457c-0.526,0.998-1.214,1.758-2.061,2.279
		c-0.847,0.523-1.839,0.785-2.974,0.785c-1.797,0-3.023-0.588-3.679-1.762c-0.516-0.939-0.646-2.127-0.394-3.561
		c0.303-1.711,0.985-3.051,2.052-4.022c1.066-0.97,2.283-1.455,3.651-1.455c1.538,0,2.662,0.508,3.371,1.523
		c0.708,1.014,0.86,2.569,0.451,4.665h-6.849c-0.123,0.811-0.015,1.441,0.327,1.891c0.343,0.453,0.828,0.678,1.457,0.678
		c0.428,0,0.81-0.117,1.143-0.352C113.819,23.589,114.106,23.212,114.347,22.694 M114.989,19.931
		c0.121-0.791,0.022-1.393-0.294-1.805s-0.753-0.618-1.312-0.618c-0.597,0-1.128,0.218-1.594,0.653
		c-0.465,0.434-0.761,1.023-0.886,1.77H114.989z"/>
	<path clip-path="url(#SVGID_2_)" fill="#FFFFFF" d="M128.263,25.981h-2.734l0.931-5.271c0.196-1.115,0.266-1.838,0.206-2.166
		c-0.059-0.328-0.204-0.582-0.435-0.764s-0.53-0.272-0.899-0.272c-0.475,0-0.922,0.13-1.344,0.39s-0.741,0.604-0.956,1.031
		c-0.214,0.428-0.424,1.221-0.627,2.375l-0.825,4.678h-2.733l1.822-10.331h2.539l-0.269,1.518c1.107-1.167,2.345-1.751,3.714-1.751
		c0.604,0,1.136,0.108,1.596,0.326c0.461,0.218,0.79,0.495,0.987,0.833c0.197,0.337,0.308,0.72,0.333,1.147
		c0.025,0.43-0.034,1.041-0.175,1.84L128.263,25.981z"/>
	<path clip-path="url(#SVGID_2_)" fill="#FFFFFF" d="M137.598,22.694l2.644,0.457c-0.527,0.998-1.213,1.758-2.062,2.279
		c-0.847,0.523-1.838,0.785-2.974,0.785c-1.796,0-3.022-0.588-3.677-1.762c-0.517-0.939-0.647-2.127-0.395-3.561
		c0.302-1.711,0.985-3.051,2.052-4.022c1.065-0.97,2.283-1.455,3.652-1.455c1.536,0,2.659,0.508,3.369,1.523
		c0.71,1.014,0.86,2.569,0.452,4.665h-6.849c-0.125,0.811-0.015,1.441,0.327,1.891c0.343,0.453,0.828,0.678,1.458,0.678
		c0.427,0,0.809-0.117,1.141-0.352C137.07,23.589,137.356,23.212,137.598,22.694 M138.241,19.931
		c0.119-0.791,0.021-1.393-0.295-1.805c-0.317-0.412-0.754-0.618-1.312-0.618c-0.597,0-1.128,0.218-1.594,0.653
		c-0.466,0.434-0.761,1.023-0.887,1.77H138.241z"/>
</g>
</svg>
