<?xml version="1.0" encoding="utf-8"?>
<!-- Generator: Adobe Illustrator 16.0.0, SVG Export Plug-In . SVG Version: 6.00 Build 0)  -->
<!DOCTYPE svg PUBLIC "-//W3C//DTD SVG 1.1//EN" "http://www.w3.org/Graphics/SVG/1.1/DTD/svg11.dtd">
<svg version="1.1" id="图层_1" xmlns="http://www.w3.org/2000/svg" xmlns:xlink="http://www.w3.org/1999/xlink" x="0px" y="0px"
	 width="30px" height="30px" viewBox="0 0 30 30" enable-background="new 0 0 30 30" xml:space="preserve">
<g>
	<g>
		<path fill="#FFFFFF" d="M27.369,28.341c-0.324,0-0.648-0.125-0.893-0.376l-6.638-6.833c-0.479-0.494-0.467-1.281,0.025-1.759
			c0.492-0.479,1.28-0.466,1.76,0.025l6.637,6.833c0.478,0.492,0.468,1.281-0.025,1.757C27.993,28.226,27.682,28.341,27.369,28.341z
			"/>
	</g>
	<g>
		<path fill="#FFFFFF" d="M13.871,23.49C7.601,23.49,2.5,18.442,2.5,12.238c0-6.204,5.101-11.251,11.371-11.251
			c6.269,0,11.371,5.047,11.371,11.251C25.241,18.442,20.14,23.49,13.871,23.49z M13.871,3.474c-4.898,0-8.885,3.932-8.885,8.765
			c0,4.834,3.986,8.766,8.885,8.766c4.898,0,8.883-3.932,8.883-8.766C22.754,7.406,18.769,3.474,13.871,3.474z"/>
	</g>
</g>
</svg>
