<?xml version="1.0" encoding="utf-8"?>
<!-- Generator: Adobe Illustrator 16.0.0, SVG Export Plug-In . SVG Version: 6.00 Build 0)  -->
<!DOCTYPE svg PUBLIC "-//W3C//DTD SVG 1.1//EN" "http://www.w3.org/Graphics/SVG/1.1/DTD/svg11.dtd">
<svg version="1.1" id="图层_1" xmlns="http://www.w3.org/2000/svg" xmlns:xlink="http://www.w3.org/1999/xlink" x="0px" y="0px"
	 width="30px" height="30px" viewBox="0 0 30 30" enable-background="new 0 0 30 30" xml:space="preserve">
<g>
	<path fill="#FFFFFF" d="M27.145,23.675c-0.656,0-1.189-0.533-1.189-1.189c0-3.223-4.901-5.945-10.704-5.945
		c-5.802,0-10.704,2.723-10.704,5.945c0,0.656-0.533,1.189-1.189,1.189s-1.189-0.533-1.189-1.189c0-4.668,5.747-8.325,13.083-8.325
		c7.337,0,13.083,3.657,13.083,8.325C28.334,23.142,27.802,23.675,27.145,23.675z"/>
</g>
<g>
	<path fill="#FFFFFF" d="M15.251,16.545c-4.262,0-7.731-3.468-7.731-7.731c0-4.263,3.469-7.731,7.731-7.731
		c4.263,0,7.73,3.468,7.73,7.731C22.981,13.077,19.514,16.545,15.251,16.545z M15.251,3.461c-2.951,0-5.352,2.401-5.352,5.353
		c0,2.951,2.401,5.352,5.352,5.352c2.952,0,5.353-2.401,5.353-5.352C20.604,5.863,18.203,3.461,15.251,3.461z"/>
</g>
<g>
	<path fill="#FFFFFF" d="M26.532,28.433H3.97c-1.081,0-1.95-1.117-1.95-2.043v-3.904c0-0.657,0.533-1.189,1.189-1.189
		s1.189,0.532,1.189,1.189v3.568h21.409v-3.568c0-0.657,0.533-1.189,1.189-1.189c0.657,0,1.189,0.532,1.189,1.189v3.904
		C28.186,27.593,27.506,28.433,26.532,28.433z"/>
</g>
<g>
	<rect x="2.02" y="1.083" fill="none" width="26.314" height="27.35"/>
</g>
</svg>
