<?xml version="1.0" encoding="utf-8"?>
<!-- Generator: Adobe Illustrator 16.0.0, SVG Export Plug-In . SVG Version: 6.00 Build 0)  -->
<!DOCTYPE svg PUBLIC "-//W3C//DTD SVG 1.1//EN" "http://www.w3.org/Graphics/SVG/1.1/DTD/svg11.dtd">
<svg version="1.1" id="图层_1" xmlns="http://www.w3.org/2000/svg" xmlns:xlink="http://www.w3.org/1999/xlink" x="0px" y="0px"
	 width="25px" height="25px" viewBox="0 0 25 25" enable-background="new 0 0 25 25" xml:space="preserve">
<g>
	<path fill="#FFFFFF" d="M22.847,24.479c-0.285,0-0.567-0.11-0.781-0.33l-5.813-5.984c-0.419-0.432-0.409-1.121,0.022-1.54
		c0.431-0.419,1.121-0.408,1.54,0.022l5.813,5.984c0.418,0.432,0.408,1.121-0.023,1.54C23.394,24.377,23.119,24.479,22.847,24.479z"
		/>
</g>
<g>
	<path fill="#FFFFFF" d="M11.023,20.23c-5.49,0-9.958-4.42-9.958-9.854c0-5.434,4.468-9.855,9.958-9.855
		c5.491,0,9.959,4.421,9.959,9.855C20.982,15.811,16.515,20.23,11.023,20.23z M11.023,2.7c-4.289,0-7.779,3.444-7.779,7.677
		s3.49,7.676,7.779,7.676c4.29,0,7.781-3.443,7.781-7.676S15.313,2.7,11.023,2.7z"/>
</g>
<g>
	<rect x="1.065" y="0.521" fill="none" width="22.87" height="23.958"/>
</g>
</svg>
