<?xml version="1.0" encoding="utf-8"?>
<!-- Generator: Adobe Illustrator 16.0.0, SVG Export Plug-In . SVG Version: 6.00 Build 0)  -->
<!DOCTYPE svg PUBLIC "-//W3C//DTD SVG 1.1//EN" "http://www.w3.org/Graphics/SVG/1.1/DTD/svg11.dtd">
<svg version="1.1" id="图层_1" xmlns="http://www.w3.org/2000/svg" xmlns:xlink="http://www.w3.org/1999/xlink" x="0px" y="0px"
	 width="30px" height="30px" viewBox="0 0 30 30" enable-background="new 0 0 30 30" xml:space="preserve">
<path fill="#7F8080" d="M24.156,15.997c0,0.36-0.298,0.652-0.664,0.652H4.914c-0.367,0-0.664-0.292-0.664-0.652l0,0
	c0-0.36,0.297-0.652,0.664-0.652h18.579C23.858,15.345,24.156,15.637,24.156,15.997L24.156,15.997z"/>
<path fill="#7F8080" d="M24.141,16.382c-0.281,0.261-0.627,0.345-0.77,0.189l-7.294-7.888c-0.143-0.155-0.031-0.493,0.251-0.753l0,0
	c0.281-0.261,0.626-0.346,0.77-0.19l7.295,7.89C24.535,15.785,24.423,16.121,24.141,16.382L24.141,16.382z"/>
<path fill="#7F8080" d="M16.33,23.801c0.281,0.26,0.626,0.344,0.77,0.188l7.293-7.888c0.143-0.155,0.032-0.493-0.251-0.753l0,0
	c-0.281-0.261-0.627-0.346-0.77-0.19l-7.295,7.889C15.935,23.203,16.047,23.54,16.33,23.801L16.33,23.801z"/>
</svg>
