<?xml version="1.0" encoding="utf-8"?>
<!-- Generator: Adobe Illustrator 16.0.0, SVG Export Plug-In . SVG Version: 6.00 Build 0)  -->
<!DOCTYPE svg PUBLIC "-//W3C//DTD SVG 1.1//EN" "http://www.w3.org/Graphics/SVG/1.1/DTD/svg11.dtd">
<svg version="1.1" id="图层_1" xmlns="http://www.w3.org/2000/svg" xmlns:xlink="http://www.w3.org/1999/xlink" x="0px" y="0px"
	 width="30px" height="30px" viewBox="0 0 30 30" enable-background="new 0 0 30 30" xml:space="preserve">
<path fill="none" stroke="#DF5D57" stroke-miterlimit="10" d="M28.21,15.209c0,7.322-5.936,13.258-13.258,13.258
	c-2.39,0-4.631-0.632-6.567-1.738c-0.804-0.46-1.556-1.001-2.243-1.613c-1.364-1.214-2.476-2.705-3.246-4.386
	c-0.771-1.681-1.201-3.55-1.201-5.521c0-7.322,5.936-13.257,13.257-13.257C22.274,1.952,28.21,7.887,28.21,15.209z"/>
<rect x="8.362" y="14.501" transform="matrix(-0.7123 -0.7019 0.7019 -0.7123 14.7753 36.0579)" fill="#DF5D57" width="12.833" height="0.999"/>
<rect x="8.585" y="14.5" transform="matrix(-0.7169 0.6971 -0.6971 -0.7169 36.2126 15.2963)" fill="#DF5D57" width="12.832" height="0.999"/>
</svg>
