<?xml version="1.0" encoding="utf-8"?>
<!-- Generator: Adobe Illustrator 16.0.0, SVG Export Plug-In . SVG Version: 6.00 Build 0)  -->
<!DOCTYPE svg PUBLIC "-//W3C//DTD SVG 1.1//EN" "http://www.w3.org/Graphics/SVG/1.1/DTD/svg11.dtd">
<svg version="1.1" id="图层_1" xmlns="http://www.w3.org/2000/svg" xmlns:xlink="http://www.w3.org/1999/xlink" x="0px" y="0px"
	 width="48px" height="45px" viewBox="0 0 48 45" enable-background="new 0 0 48 45" xml:space="preserve">
<path fill="#0D4083" d="M3,0h43.002c1.104,0,1.998,0.895,1.998,1.998V45"/>
<g>
	<path fill="#FFFFFF" d="M19.268,9.78l6.103-6.544l1.868,1.742c0.991,0.924,1.547,1.981,1.665,3.173
		c0.12,1.19-0.274,2.271-1.181,3.243c-0.945,1.014-2.031,1.521-3.26,1.518c-1.227-0.002-2.36-0.487-3.396-1.453L19.268,9.78z
		 M25.515,4.775L20.81,9.819l0.951,0.887c0.83,0.774,1.69,1.153,2.58,1.135c0.889-0.019,1.715-0.437,2.477-1.253
		c0.762-0.817,1.095-1.654,1-2.512c-0.096-0.858-0.533-1.65-1.313-2.378L25.515,4.775z"/>
	<path fill="#FFFFFF" d="M31.203,20.91l-1.002-0.934l1.457-8.16c0.041-0.23,0.099-0.442,0.174-0.636l-0.024-0.023
		c-0.114,0.167-0.389,0.483-0.822,0.948l-4.29,4.601l-0.836-0.78l6.103-6.544l1.061,0.989L31.56,18.36
		c-0.068,0.378-0.119,0.613-0.152,0.704l0.018,0.016c0.146-0.212,0.429-0.543,0.849-0.994l4.196-4.499l0.836,0.78L31.203,20.91z"/>
	<path fill="#FFFFFF" d="M38.033,27.281L37.1,26.41l1.004-2.414l-2.725-2.541l-2.301,1.204l-0.934-0.871l8.596-4.219l0.904,0.843
		L38.033,27.281z M38.53,23.013l1.55-3.642c0.051-0.116,0.157-0.3,0.323-0.551L40.383,18.8c-0.215,0.167-0.392,0.287-0.531,0.358
		l-3.518,1.806L38.53,23.013z"/>
</g>
</svg>
