<?xml version="1.0" encoding="utf-8"?>
<!-- Generator: Adobe Illustrator 16.0.0, SVG Export Plug-In . SVG Version: 6.00 Build 0)  -->
<!DOCTYPE svg PUBLIC "-//W3C//DTD SVG 1.1//EN" "http://www.w3.org/Graphics/SVG/1.1/DTD/svg11.dtd">
<svg version="1.1" id="图层_1" xmlns="http://www.w3.org/2000/svg" xmlns:xlink="http://www.w3.org/1999/xlink" x="0px" y="0px"
	 width="104px" height="50px" viewBox="0 0 104 50" enable-background="new 0 0 104 50" xml:space="preserve">
<circle fill="#41A8CE" cx="88.787" cy="7.777" r="6.296"/>
<path fill="#41A8CE" d="M62.153,11.456l9.726-3.679c0,0,3.368-0.935,5.362,0.936l7.106,5.361c0,0,2.743,2.868,0,5.362l-7.481,7.106
	c0,0-0.871,0.623,1.123,1.122l7.577,1.871c0,0,3.712,1.994,0,6.857l-6.832,11.619c0,0-5.999,0.377-3.333-5.623l5.666-8.166
	c0,0-9.438-3.021-11.281-4.787c0,0-2.453-1.344-0.636-3.797l9.667-8.75l-6-3.916l-7.458,3.083
	C65.359,16.057,60.822,15.813,62.153,11.456z"/>
<path fill="#41A8CE" d="M88.13,16.499c0,0-2.781,1.391-1.813,4.484c0,0,3.969,3.469,4.406,3.594c0,0,2.406,1.344,4.406-0.563
	l6.844-9.734c0,0,0.453-2.125-0.844-2.766c0,0-2.828-1.656-5.656,1.484l-4.016,5.688L88.13,16.499z"/>
<path fill="#41A8CE" d="M66.736,29.2c0,0-3.55,7.708-17.44,12.844c0,0-3.304,3.76,2.203,5.136c0,0,12.361-2.447,20.193-14.156
	C71.692,33.023,70.438,28.632,66.736,29.2z"/>
<rect x="10.567" y="22.015" fill="#41A8CE" width="42.5" height="1.625"/>
<rect x="1.95" y="29.14" fill="#41A8CE" width="42.5" height="1.625"/>
<rect x="10.567" y="37.769" fill="#41A8CE" width="24.117" height="1.625"/>
</svg>
