<?xml version="1.0" encoding="utf-8"?>
<!-- Generator: Adobe Illustrator 17.0.0, SVG Export Plug-In . SVG Version: 6.00 Build 0)  -->
<!DOCTYPE svg PUBLIC "-//W3C//DTD SVG 1.1//EN" "http://www.w3.org/Graphics/SVG/1.1/DTD/svg11.dtd">
<svg version="1.1" id="图层_1" xmlns="http://www.w3.org/2000/svg" xmlns:xlink="http://www.w3.org/1999/xlink" x="0px" y="0px"
	 width="128px" height="128px" viewBox="0 0 128 128" enable-background="new 0 0 128 128" xml:space="preserve">
<g>
	<g>
		<g>
			<g>
				<g>
					<path fill="#0D4083" d="M125.396,68.636l1.771,0.132c0,0,0.023-0.298,0.057-0.743c0.043-0.446,0.075-1.042,0.08-1.639
						c0.03-1.193,0.061-2.386,0.061-2.386h-1.777c0,0-0.029,1.16-0.059,2.319c-0.005,0.581-0.036,1.16-0.078,1.594
						C125.417,68.347,125.396,68.636,125.396,68.636z"/>
					<path fill="#0D4083" d="M124.502,75.483l1.746,0.329c0,0,0.205-1.176,0.41-2.352c0.15-1.184,0.301-2.367,0.301-2.367
						l-1.767-0.197c0,0-0.146,1.15-0.292,2.302C124.701,74.341,124.502,75.483,124.502,75.483z"/>
					<path fill="#0D4083" d="M122.854,82.188l1.698,0.524c0,0,0.326-1.148,0.651-2.297c0.176-0.57,0.295-1.156,0.398-1.592
						c0.101-0.436,0.168-0.727,0.168-0.727l-1.733-0.394c0,0-0.064,0.282-0.163,0.706c-0.1,0.423-0.216,0.992-0.387,1.547
						C123.171,81.073,122.854,82.188,122.854,82.188z"/>
					<path fill="#0D4083" d="M120.438,88.658l1.628,0.712c0,0,0.123-0.271,0.308-0.68c0.164-0.416,0.384-0.971,0.604-1.525
						c0.215-0.557,0.444-1.108,0.594-1.529c0.144-0.424,0.239-0.707,0.239-0.707l-1.678-0.587c0,0-0.093,0.274-0.231,0.687
						c-0.146,0.41-0.369,0.945-0.578,1.486c-0.213,0.539-0.426,1.078-0.586,1.482C120.557,88.394,120.438,88.658,120.438,88.658z"/>
					<path fill="#0D4083" d="M117.314,94.816l1.538,0.891c0,0,0.148-0.259,0.371-0.646c0.223-0.389,0.528-0.901,0.79-1.438
						c0.545-1.063,1.089-2.125,1.089-2.125l-1.602-0.772c0,0-0.528,1.032-1.058,2.064c-0.254,0.522-0.552,1.021-0.768,1.397
						C117.459,94.564,117.314,94.816,117.314,94.816z"/>
					<path fill="#0D4083" d="M113.532,100.596l1.429,1.058c0,0,0.691-0.973,1.383-1.945c0.671-0.986,1.302-2,1.302-2l-1.504-0.947
						c0,0-0.612,0.985-1.266,1.944C114.204,99.65,113.532,100.596,113.532,100.596z"/>
					<path fill="#0D4083" d="M109.116,105.904l1.302,1.21c0,0,0.206-0.217,0.514-0.541c0.293-0.339,0.684-0.789,1.074-1.24
						c0.798-0.888,1.524-1.835,1.524-1.835l-1.389-1.109c-0.001,0-0.706,0.921-1.482,1.784c-0.38,0.438-0.759,0.877-1.044,1.206
						C109.316,105.694,109.116,105.904,109.116,105.904z"/>
				</g>
			</g>
			<g>
				<g>
					<path fill="#0D4083" d="M104.136,110.691l1.159,1.347c0,0,0.226-0.195,0.564-0.488c0.338-0.293,0.795-0.677,1.219-1.097
						c0.864-0.824,1.728-1.647,1.728-1.647l-1.257-1.257c0,0-0.84,0.801-1.68,1.601c-0.411,0.409-0.856,0.782-1.185,1.067
						C104.355,110.501,104.136,110.691,104.136,110.691z"/>
					<path fill="#0D4083" d="M98.664,114.905l1.002,1.469c0,0,0.973-0.692,1.945-1.384c0.96-0.709,1.888-1.46,1.888-1.461
						l-1.109-1.389c0,0-0.901,0.73-1.834,1.42C99.609,114.233,98.664,114.905,98.664,114.905z"/>
					<path fill="#0D4083" d="M92.748,118.466l0.83,1.571c0,0,0.266-0.137,0.663-0.342c0.389-0.224,0.905-0.521,1.423-0.818
						c1.046-0.576,2.044-1.231,2.044-1.231l-0.946-1.504c-0.001,0-0.971,0.637-1.987,1.196c-0.503,0.29-1.005,0.579-1.383,0.796
						C93.006,118.333,92.748,118.466,92.748,118.466z"/>
					<path fill="#0D4083" d="M86.469,121.34l0.649,1.655c0,0,0.277-0.109,0.693-0.273c0.417-0.162,0.974-0.379,1.513-0.635
						c1.087-0.492,2.174-0.984,2.174-0.984l-0.772-1.602c0,0-1.056,0.479-2.112,0.957c-0.524,0.249-1.064,0.459-1.47,0.616
						C86.738,121.234,86.469,121.34,86.469,121.34z"/>
					<path fill="#0D4083" d="M79.911,123.501l0.458,1.717c0,0,1.147-0.326,2.296-0.651c1.132-0.379,2.265-0.757,2.265-0.757
						l-0.588-1.678c0,0-1.1,0.368-2.199,0.735C81.026,123.184,79.911,123.501,79.911,123.501z"/>
					<path fill="#0D4083" d="M73.148,124.906l0.262,1.759c0-0.001,0.297-0.035,0.736-0.119c0.44-0.079,1.028-0.184,1.615-0.289
						c0.589-0.102,1.176-0.207,1.609-0.318c0.437-0.101,0.727-0.168,0.727-0.168l-0.394-1.733c0,0-0.282,0.065-0.706,0.163
						c-0.422,0.109-0.992,0.212-1.564,0.311c-0.57,0.102-1.142,0.203-1.569,0.28C73.437,124.873,73.148,124.906,73.148,124.906z"/>
					<path fill="#0D4083" d="M66.271,125.529l0.064,1.776c0,0,0.299-0.008,0.746-0.02c0.446-0.016,1.041-0.073,1.636-0.115
						c0.595-0.045,1.189-0.09,1.636-0.124c0.444-0.053,0.74-0.088,0.74-0.088l-0.196-1.767c0,0-0.288,0.034-0.72,0.086
						c-0.434,0.032-1.013,0.076-1.591,0.12c-0.578,0.04-1.155,0.098-1.591,0.112C66.562,125.522,66.271,125.529,66.271,125.529z"/>
				</g>
			</g>
			<g>
				<g>
					<path fill="#0D4083" d="M59.365,125.395l-0.132,1.772c0,0,0.298,0.023,0.744,0.057c0.446,0.043,1.042,0.075,1.639,0.08
						c1.193,0.03,2.385,0.061,2.385,0.061v-1.777c0,0-1.16-0.029-2.319-0.059c-0.581-0.005-1.16-0.036-1.593-0.078
						C59.654,125.417,59.365,125.395,59.365,125.395z"/>
					<path fill="#0D4083" d="M52.517,124.501l-0.33,1.747c0,0,1.176,0.205,2.352,0.41c1.184,0.15,2.368,0.301,2.368,0.301
						l0.197-1.767c0,0-1.151-0.146-2.302-0.292C53.66,124.701,52.517,124.501,52.517,124.501z"/>
					<path fill="#0D4083" d="M45.812,122.854l-0.524,1.698c0,0,1.148,0.326,2.296,0.652c0.571,0.176,1.156,0.295,1.592,0.398
						c0.436,0.101,0.727,0.168,0.727,0.168l0.394-1.733c0,0-0.283-0.065-0.707-0.163c-0.423-0.101-0.992-0.216-1.546-0.387
						C46.928,123.171,45.812,122.854,45.812,122.854z"/>
					<path fill="#0D4083" d="M39.343,120.438l-0.712,1.628c0,0,0.271,0.123,0.68,0.307c0.416,0.165,0.971,0.385,1.525,0.604
						c0.557,0.216,1.108,0.445,1.529,0.595c0.424,0.144,0.707,0.239,0.707,0.239l0.587-1.678c0,0-0.274-0.093-0.687-0.232
						c-0.41-0.145-0.945-0.368-1.486-0.577c-0.539-0.214-1.079-0.427-1.483-0.586C39.607,120.557,39.343,120.438,39.343,120.438z"/>
					<path fill="#0D4083" d="M33.184,117.313l-0.891,1.538c0,0,0.258,0.148,0.646,0.372c0.388,0.223,0.901,0.528,1.438,0.79
						c1.062,0.544,2.125,1.088,2.125,1.088l0.772-1.601c0,0-1.033-0.529-2.065-1.058c-0.522-0.254-1.02-0.552-1.397-0.769
						C33.436,117.458,33.184,117.313,33.184,117.313z"/>
					<path fill="#0D4083" d="M27.405,113.531l-1.057,1.429c0,0,0.972,0.691,1.945,1.383c0.986,0.672,2,1.303,2,1.302l0.947-1.504
						c0,0.001-0.985-0.612-1.944-1.265C28.35,114.203,27.405,113.531,27.405,113.531z"/>
					<path fill="#0D4083" d="M22.096,109.116l-1.21,1.302c0,0,0.217,0.205,0.542,0.513c0.338,0.293,0.789,0.684,1.24,1.074
						c0.888,0.798,1.835,1.524,1.835,1.524l1.109-1.389c0,0-0.92-0.706-1.784-1.482c-0.438-0.379-0.877-0.759-1.206-1.044
						C22.307,109.315,22.096,109.116,22.096,109.116z"/>
				</g>
			</g>
			<g>
				<g>
					<path fill="#0D4083" d="M17.31,104.136l-1.348,1.159c0,0,0.195,0.226,0.489,0.563s0.677,0.795,1.097,1.22
						c0.824,0.863,1.647,1.727,1.647,1.727l1.257-1.257c0,0-0.8-0.839-1.601-1.679c-0.409-0.412-0.782-0.857-1.067-1.186
						C17.5,104.354,17.31,104.136,17.31,104.136z"/>
					<path fill="#0D4083" d="M13.095,98.664l-1.468,1.001c0,0,0.692,0.973,1.383,1.945c0.709,0.96,1.46,1.888,1.46,1.888
						l1.389-1.109c0,0-0.731-0.901-1.42-1.834C13.768,99.609,13.095,98.664,13.095,98.664z"/>
					<path fill="#0D4083" d="M9.535,92.747l-1.571,0.831c0,0,0.137,0.265,0.342,0.663c0.223,0.388,0.521,0.905,0.818,1.422
						c0.577,1.046,1.232,2.044,1.231,2.044l1.504-0.946c0,0-0.637-0.97-1.197-1.987c-0.289-0.502-0.578-1.005-0.795-1.382
						C9.668,93.005,9.535,92.747,9.535,92.747z"/>
					<path fill="#0D4083" d="M6.66,86.468l-1.654,0.649c0,0,0.109,0.277,0.273,0.693c0.162,0.418,0.378,0.974,0.635,1.513
						c0.492,1.087,0.984,2.174,0.984,2.174l1.601-0.771c0,0-0.478-1.057-0.956-2.113c-0.25-0.523-0.459-1.064-0.617-1.47
						C6.767,86.738,6.66,86.468,6.66,86.468z"/>
					<path fill="#0D4083" d="M4.5,79.91l-1.717,0.458c0,0,0.326,1.148,0.652,2.296c0.378,1.133,0.756,2.265,0.756,2.265l1.678-0.587
						c0,0-0.368-1.101-0.735-2.2C4.816,81.025,4.5,79.91,4.5,79.91z"/>
					<path fill="#0D4083" d="M3.094,73.148L1.336,73.41c0,0,0.035,0.296,0.119,0.735c0.079,0.441,0.184,1.028,0.288,1.616
						c0.102,0.588,0.208,1.175,0.319,1.608c0.101,0.437,0.168,0.728,0.168,0.728l1.733-0.395c0,0-0.065-0.282-0.163-0.706
						c-0.108-0.422-0.211-0.992-0.31-1.563c-0.102-0.571-0.204-1.142-0.281-1.57C3.127,73.437,3.094,73.148,3.094,73.148z"/>
					<path fill="#0D4083" d="M2.471,66.271l-1.776,0.064c0,0,0.008,0.298,0.019,0.745c0.016,0.447,0.074,1.041,0.115,1.636
						c0.045,0.595,0.091,1.19,0.125,1.636c0.053,0.444,0.088,0.741,0.088,0.741l1.766-0.197c0,0-0.034-0.288-0.085-0.72
						c-0.033-0.434-0.077-1.012-0.121-1.59c-0.04-0.579-0.097-1.156-0.112-1.591C2.479,66.561,2.471,66.271,2.471,66.271z"/>
				</g>
			</g>
			<g>
				<g>
					<path fill="#0D4083" d="M2.605,59.364l-1.772-0.132c0,0-0.022,0.297-0.057,0.744c-0.043,0.446-0.075,1.042-0.08,1.638
						C0.667,62.807,0.636,64,0.636,64h1.777c0,0,0.029-1.16,0.059-2.32c0.004-0.581,0.036-1.16,0.078-1.593
						C2.583,59.653,2.605,59.364,2.605,59.364z"/>
					<path fill="#0D4083" d="M3.499,52.517l-1.747-0.33c0,0-0.205,1.176-0.41,2.352c-0.15,1.184-0.301,2.368-0.301,2.368
						l1.766,0.197c0,0,0.146-1.15,0.292-2.301C3.3,53.659,3.499,52.517,3.499,52.517z"/>
					<path fill="#0D4083" d="M5.146,45.811l-1.698-0.524c0,0-0.326,1.148-0.652,2.296c-0.175,0.571-0.295,1.156-0.398,1.592
						c-0.101,0.436-0.168,0.727-0.168,0.727l1.733,0.394c0,0,0.065-0.283,0.163-0.707c0.101-0.423,0.216-0.992,0.387-1.547
						C4.83,46.927,5.146,45.811,5.146,45.811z"/>
					<path fill="#0D4083" d="M7.563,39.342L5.935,38.63c0,0-0.123,0.272-0.307,0.68c-0.165,0.416-0.384,0.971-0.604,1.526
						c-0.215,0.556-0.445,1.107-0.594,1.529c-0.144,0.424-0.239,0.707-0.239,0.707l1.678,0.587c0,0,0.093-0.275,0.232-0.687
						c0.146-0.41,0.369-0.945,0.578-1.486c0.213-0.54,0.426-1.079,0.586-1.483C7.444,39.606,7.563,39.342,7.563,39.342z"/>
					<path fill="#0D4083" d="M10.687,33.184l-1.538-0.891c0,0-0.149,0.259-0.372,0.647s-0.528,0.901-0.79,1.438
						c-0.544,1.063-1.088,2.125-1.088,2.125L8.5,37.274c0,0,0.529-1.032,1.058-2.064c0.254-0.522,0.552-1.02,0.768-1.397
						C10.542,33.435,10.687,33.184,10.687,33.184z"/>
					<path fill="#0D4083" d="M14.469,27.404l-1.429-1.058c0,0-0.692,0.973-1.383,1.945c-0.671,0.986-1.302,2-1.302,2l1.504,0.947
						c0,0,0.613-0.985,1.265-1.944C13.797,28.35,14.469,27.404,14.469,27.404z"/>
					<path fill="#0D4083" d="M18.885,22.095l-1.302-1.209c0,0-0.205,0.216-0.513,0.541c-0.293,0.338-0.684,0.789-1.075,1.24
						c-0.797,0.888-1.524,1.835-1.524,1.835l1.389,1.109c0,0,0.706-0.921,1.482-1.784c0.379-0.438,0.759-0.877,1.044-1.206
						C18.685,22.306,18.885,22.095,18.885,22.095z"/>
				</g>
			</g>
			<g>
				<g>
					<path fill="#0D4083" d="M23.865,17.309l-1.159-1.347c0,0-0.225,0.195-0.563,0.488c-0.338,0.293-0.795,0.677-1.219,1.098
						c-0.864,0.823-1.728,1.647-1.728,1.647l1.257,1.257c0,0,0.84-0.801,1.679-1.601c0.412-0.409,0.857-0.782,1.186-1.067
						C23.646,17.499,23.865,17.309,23.865,17.309z"/>
					<path fill="#0D4083" d="M29.336,13.094l-1.001-1.468c0,0-0.973,0.691-1.945,1.383c-0.959,0.709-1.888,1.46-1.887,1.46
						l1.109,1.389c0,0,0.902-0.73,1.834-1.42C28.391,13.767,29.336,13.094,29.336,13.094z"/>
					<path fill="#0D4083" d="M35.253,9.534l-0.831-1.571c0,0-0.265,0.137-0.663,0.342c-0.388,0.223-0.906,0.52-1.423,0.817
						c-1.046,0.577-2.044,1.232-2.044,1.232l0.947,1.504c0,0,0.97-0.637,1.987-1.197c0.502-0.29,1.005-0.579,1.382-0.795
						C34.996,9.667,35.253,9.534,35.253,9.534z"/>
					<path fill="#0D4083" d="M41.532,6.66l-0.649-1.655c0,0-0.277,0.109-0.694,0.273c-0.417,0.162-0.973,0.378-1.513,0.635
						c-1.087,0.492-2.174,0.984-2.174,0.984l0.772,1.601c0,0,1.057-0.479,2.113-0.957c0.524-0.25,1.064-0.459,1.47-0.617
						C41.263,6.766,41.532,6.66,41.532,6.66z"/>
					<path fill="#0D4083" d="M48.09,4.499l-0.458-1.717c0,0-1.148,0.326-2.296,0.652c-1.132,0.378-2.264,0.756-2.264,0.756
						l0.587,1.678c0,0,1.1-0.368,2.2-0.735C46.975,4.815,48.09,4.499,48.09,4.499z"/>
					<path fill="#0D4083" d="M54.852,3.093L54.59,1.335c0,0-0.296,0.035-0.736,0.119c-0.441,0.079-1.028,0.184-1.616,0.288
						c-0.588,0.102-1.175,0.208-1.609,0.319c-0.436,0.101-0.727,0.168-0.727,0.168l0.394,1.733c0,0,0.282-0.065,0.706-0.163
						c0.422-0.108,0.993-0.211,1.564-0.31c0.571-0.102,1.142-0.204,1.57-0.28C54.564,3.126,54.852,3.093,54.852,3.093z"/>
					<path fill="#0D4083" d="M61.729,2.47l-0.064-1.776c0,0-0.298,0.008-0.745,0.019c-0.447,0.016-1.042,0.074-1.636,0.115
						c-0.595,0.045-1.19,0.091-1.636,0.125c-0.444,0.053-0.741,0.088-0.741,0.088l0.197,1.766c0,0,0.288-0.034,0.719-0.085
						c0.434-0.033,1.012-0.077,1.59-0.121c0.579-0.04,1.156-0.097,1.591-0.112C61.439,2.478,61.729,2.47,61.729,2.47z"/>
				</g>
			</g>
			<g>
				<g>
					<path fill="#0D4083" d="M68.637,2.604l0.132-1.772c0,0-0.298-0.022-0.744-0.057c-0.445-0.043-1.041-0.075-1.638-0.08
						C65.193,0.666,64,0.635,64,0.635v1.777c0,0,1.16,0.029,2.32,0.059c0.581,0.004,1.16,0.036,1.593,0.078
						C68.348,2.583,68.637,2.604,68.637,2.604z"/>
					<path fill="#0D4083" d="M75.483,3.498l0.33-1.747c0,0-1.176-0.205-2.352-0.41c-1.184-0.15-2.368-0.301-2.368-0.301
						l-0.196,1.766c0,0,1.15,0.146,2.301,0.292C74.341,3.299,75.483,3.498,75.483,3.498z"/>
					<path fill="#0D4083" d="M82.189,5.146l0.524-1.698c0,0-1.148-0.326-2.297-0.652c-0.57-0.176-1.155-0.296-1.591-0.4
						c-0.436-0.101-0.727-0.167-0.727-0.167l-0.394,1.733c0,0,0.282,0.065,0.706,0.163c0.423,0.101,0.992,0.216,1.547,0.387
						C81.073,4.829,82.189,5.146,82.189,5.146z"/>
					<path fill="#0D4083" d="M88.658,7.562l0.713-1.628c0,0-0.272-0.123-0.68-0.307c-0.416-0.165-0.972-0.384-1.526-0.604
						c-0.556-0.216-1.107-0.445-1.529-0.594C85.212,4.286,84.93,4.19,84.93,4.19l-0.587,1.678c0,0,0.274,0.093,0.687,0.232
						c0.41,0.145,0.945,0.369,1.486,0.578c0.539,0.213,1.078,0.426,1.482,0.585C88.395,7.443,88.658,7.562,88.658,7.562z"/>
					<path fill="#0D4083" d="M94.816,10.686l0.892-1.538c0,0-0.259-0.148-0.646-0.372c-0.389-0.223-0.901-0.529-1.438-0.791
						C92.561,7.441,91.5,6.897,91.5,6.897l-0.772,1.601c0,0,1.032,0.529,2.064,1.058c0.521,0.254,1.021,0.552,1.397,0.768
						C94.565,10.541,94.816,10.686,94.816,10.686z"/>
					<path fill="#0D4083" d="M100.596,14.468l1.058-1.429c0,0-0.973-0.691-1.944-1.383c-0.986-0.671-2-1.302-2-1.302l-0.947,1.504
						c0,0,0.985,0.613,1.944,1.265C99.651,13.796,100.596,14.468,100.596,14.468z"/>
					<path fill="#0D4083" d="M105.904,18.883l1.21-1.302c0,0-0.216-0.205-0.541-0.513c-0.338-0.293-0.789-0.684-1.239-1.074
						c-0.889-0.797-1.836-1.524-1.835-1.524l-1.109,1.389c0,0,0.921,0.707,1.783,1.482c0.438,0.379,0.877,0.759,1.206,1.044
						C105.694,18.684,105.904,18.883,105.904,18.883z"/>
				</g>
			</g>
			<g>
				<g>
					<path fill="#0D4083" d="M110.691,23.864l1.348-1.159c0,0-0.195-0.225-0.488-0.563c-0.294-0.338-0.678-0.795-1.098-1.219
						c-0.823-0.864-1.647-1.728-1.647-1.728l-1.257,1.257c0,0,0.801,0.84,1.602,1.679c0.408,0.412,0.781,0.857,1.066,1.186
						S110.691,23.864,110.691,23.864z"/>
					<path fill="#0D4083" d="M114.905,29.335l1.469-1.001c0,0-0.691-0.973-1.384-1.945c-0.709-0.959-1.46-1.888-1.46-1.887
						l-1.389,1.109c0,0,0.73,0.902,1.42,1.834C114.233,28.39,114.905,29.335,114.905,29.335z"/>
					<path fill="#0D4083" d="M118.466,35.252l1.571-0.831c0,0-0.137-0.265-0.342-0.663c-0.224-0.388-0.521-0.905-0.818-1.423
						c-0.576-1.046-1.231-2.044-1.231-2.044l-1.504,0.947c0,0,0.637,0.97,1.197,1.987c0.289,0.503,0.578,1.005,0.795,1.383
						C118.333,34.995,118.466,35.252,118.466,35.252z"/>
					<path fill="#0D4083" d="M121.34,41.531l1.655-0.648c0,0-0.109-0.278-0.273-0.694c-0.162-0.417-0.379-0.974-0.635-1.513
						c-0.492-1.087-0.984-2.174-0.984-2.174l-1.601,0.772c0,0,0.478,1.056,0.956,2.113c0.249,0.524,0.459,1.064,0.616,1.47
						C121.234,41.262,121.34,41.531,121.34,41.531z"/>
					<path fill="#0D4083" d="M123.501,48.089l1.717-0.458c0,0-0.325-1.148-0.651-2.296c-0.379-1.132-0.757-2.264-0.757-2.264
						l-1.678,0.587c0,0,0.368,1.1,0.735,2.2C123.184,46.974,123.501,48.089,123.501,48.089z"/>
					<path fill="#0D4083" d="M124.906,54.852l1.759-0.262c-0.001,0-0.035-0.296-0.119-0.736c-0.079-0.44-0.184-1.028-0.289-1.615
						c-0.102-0.588-0.207-1.175-0.318-1.609c-0.101-0.436-0.168-0.727-0.168-0.727l-1.733,0.394c0,0,0.065,0.283,0.163,0.707
						c0.109,0.421,0.212,0.992,0.311,1.564c0.102,0.571,0.203,1.142,0.28,1.57C124.873,54.563,124.906,54.852,124.906,54.852z"/>
					<path fill="#0D4083" d="M125.529,61.729l1.776-0.064c0,0-0.008-0.298-0.02-0.746c-0.016-0.447-0.073-1.041-0.115-1.636
						c-0.045-0.595-0.09-1.189-0.124-1.636c-0.053-0.444-0.088-0.74-0.088-0.74l-1.767,0.197c0,0,0.034,0.288,0.086,0.72
						c0.032,0.434,0.076,1.012,0.12,1.59c0.04,0.579,0.098,1.156,0.112,1.591C125.522,61.438,125.529,61.729,125.529,61.729z"/>
				</g>
			</g>
		</g>
	</g>
</g>
<g>
	<path fill="#B5B5B6" d="M22.501,69.75c0.532-0.505,0.743-0.771,1.093-1.317c0.364-0.574,0.504-0.896,0.756-1.652l0.827,0.364
		c-0.532,1.331-1.009,2.143-1.849,3.109L22.501,69.75z M32.951,59.412c0.588,0,1.009-0.028,1.401-0.084v0.966
		c-0.476-0.056-0.911-0.084-1.401-0.084h-3.95v1.849h2.704c0.771,0,1.205-0.014,1.583-0.07c-0.042,0.309-0.056,0.63-0.056,1.051
		v2.241c0,0.421,0.014,0.673,0.056,1.009c-0.477-0.042-0.813-0.057-1.443-0.057h-6.037c-0.617,0-0.995,0.015-1.443,0.057
		c0.042-0.336,0.056-0.645,0.056-1.009V63.04c0-0.392-0.014-0.687-0.056-1.051c0.42,0.042,0.938,0.07,1.583,0.07h2.143v-3.04
		c0-0.519-0.028-0.967-0.098-1.387h1.106c-0.07,0.392-0.098,0.813-0.098,1.331v0.448L32.951,59.412
		C32.951,59.411,32.951,59.412,32.951,59.412z M25.317,62.872v2.535h7.018v-2.535C32.335,62.872,25.317,62.872,25.317,62.872z
		 M26.942,70.268c0-1.204-0.084-1.946-0.308-3.081l0.798-0.141c0.266,1.247,0.378,1.976,0.435,3.026L26.942,70.268z M30.43,70.282
		c-0.267-1.148-0.533-1.891-1.107-3.082l0.771-0.252c0.546,1.093,0.854,1.85,1.233,2.955L30.43,70.282z M34.002,70.254
		c-0.63-1.345-1.037-2.045-1.863-3.165l0.771-0.351c0.854,1.177,1.191,1.694,1.919,3.012L34.002,70.254z"/>
	<path fill="#B5B5B6" d="M47.554,62.858c0.616,0,1.05-0.028,1.429-0.084v0.995c-0.434-0.056-0.827-0.084-1.429-0.084h-4.356v4.875
		h3.586v-2.521c0-0.477-0.014-0.743-0.07-1.065h1.05c-0.056,0.308-0.07,0.574-0.07,1.106v2.984c0,0.49,0.014,0.813,0.07,1.204h-0.98
		v-0.924h-7.816c-0.448,0-0.77,0.014-1.106,0.056c0.042-0.35,0.056-0.631,0.056-1.037v-2.324c0-0.491-0.014-0.771-0.07-1.093h1.051
		c-0.056,0.294-0.07,0.56-0.07,1.064v2.55h3.488v-4.875H38.03c-0.602,0-0.98,0.028-1.415,0.084v-0.995
		c0.378,0.056,0.813,0.084,1.415,0.084h4.287v-2.577h-3.222c-0.546,0-1.037,0.028-1.597,0.098v-1.008
		c0.462,0.056,0.953,0.084,1.597,0.084h3.222v-0.616c0-0.519-0.028-0.883-0.084-1.191h1.05c-0.07,0.336-0.084,0.645-0.084,1.191
		v0.616h3.376c0.616,0,1.092-0.028,1.541-0.084v1.008c-0.462-0.07-0.966-0.098-1.555-0.098h-3.362v2.577
		C43.199,62.858,47.554,62.858,47.554,62.858z"/>
	<path fill="#B5B5B6" d="M60.545,62.158c0.602,0,1.05-0.028,1.456-0.084v1.079c-0.434-0.056-0.854-0.084-1.456-0.084h-3.544v5.673
		h4.58c0.658,0,1.093-0.028,1.569-0.084v1.064c-0.532-0.07-0.967-0.098-1.569-0.098h-9.329c-0.603,0-1.12,0.027-1.652,0.098v-1.064
		c0.462,0.056,0.952,0.084,1.652,0.084h3.754v-9.455c0-0.532-0.027-0.967-0.098-1.457h1.19C57.028,58.307,57,58.755,57,59.287v2.872
		L60.545,62.158L60.545,62.158z"/>
	<path fill="#B5B5B6" d="M66.168,63.979c0-0.63,0.014-1.106,0.056-1.709c-0.462,0.827-0.644,1.079-1.526,2.115
		c-0.168-0.336-0.322-0.56-0.561-0.813c0.742-0.771,0.995-1.079,1.471-1.793c0.869-1.316,1.667-3.151,1.835-4.23l0.98,0.308
		c-0.069,0.154-0.069,0.154-0.294,0.756c-0.336,0.896-0.658,1.583-1.078,2.381v7.592c0,0.645,0.027,1.135,0.098,1.639h-1.078
		c0.069-0.49,0.098-0.91,0.098-1.681L66.168,63.979L66.168,63.979z M71.421,62.648c-0.378,1.121-0.574,1.737-0.616,1.849h3.74
		c0.644,0,0.924-0.014,1.204-0.056l0.616,0.672c-0.238,0.252-0.238,0.252-0.896,1.036c-1.288,1.583-1.484,1.793-2.073,2.424
		c0.491,0.406,0.659,0.588,1.317,1.288l-0.631,0.631c-1.204-1.289-2.185-2.115-3.684-3.067l0.63-0.574
		c0.743,0.476,0.938,0.602,1.653,1.162c0.056-0.057,0.056-0.057,0.126-0.126c0.504-0.546,1.261-1.457,2.144-2.563H70.65
		c-0.056,0-0.182,0.014-0.393,0.028c-0.153,0.014-0.321,0.014-0.84,0.042c0.392-0.799,0.63-1.415,1.064-2.746H69.15
		c-0.49,0-0.938,0.028-1.358,0.07v-0.924c0.322,0.056,0.715,0.07,1.358,0.07h1.569c0.266-0.938,0.266-0.938,0.519-1.905H69.85
		c-0.518,0-0.868,0.014-1.274,0.07v-0.924c0.351,0.056,0.673,0.07,1.274,0.07h1.569c0.098-0.406,0.098-0.406,0.112-0.462
		c0.084-0.336,0.168-0.883,0.168-1.093c0-0.042,0-0.042-0.014-0.112l1.078,0.056c-0.126,0.392-0.126,0.392-0.435,1.611H75.2
		c0.645,0,0.98-0.028,1.316-0.084v0.938c-0.435-0.056-0.771-0.07-1.303-0.07h-3.067c-0.351,1.457-0.351,1.457-0.49,1.905h4.118
		c0.658,0,1.009-0.014,1.345-0.07v0.924c-0.42-0.042-0.854-0.07-1.345-0.07C75.774,62.648,71.421,62.648,71.421,62.648z"/>
	<path fill="#B5B5B6" d="M89.413,64.189c0.784,0,1.163-0.014,1.555-0.084v1.022c-0.462-0.056-0.91-0.084-1.555-0.084h-3.895
		c-0.392,1.415-1.176,2.493-2.437,3.362c-0.98,0.687-2.018,1.177-4.007,1.862c-0.126-0.322-0.322-0.602-0.616-0.896
		c1.892-0.462,3.067-0.966,4.16-1.778c1.009-0.757,1.583-1.527,1.905-2.55h-4.356c-0.714,0-1.148,0.028-1.526,0.084v-1.022
		c0.364,0.056,0.798,0.084,1.526,0.084h4.553c0.238-1.274,0.364-2.983,0.364-4.86c0-0.756-0.028-1.233-0.112-1.625h1.148
		c-0.056,0.392-0.084,0.827-0.084,1.471c-0.014,1.919-0.168,3.964-0.35,5.015L89.413,64.189L89.413,64.189z M82.676,63.153
		c-1.093-0.771-2.018-1.289-3.236-1.793l0.561-0.743c1.289,0.532,2.283,1.051,3.208,1.709L82.676,63.153z M83.726,60.673
		c-1.036-0.743-1.933-1.233-3.277-1.793l0.561-0.743c1.303,0.546,2.185,1.009,3.193,1.709L83.726,60.673z M85.757,66.234
		c2.634,1.346,3.698,1.961,5.379,3.138l-0.56,0.827c-1.598-1.163-2.55-1.752-5.295-3.264L85.757,66.234z"/>
	<path fill="#B5B5B6" d="M93.874,64.441c0-0.687,0.014-1.219,0.056-2.059c-0.378,0.742-0.714,1.261-1.246,1.933
		c-0.084-0.126-0.084-0.126-0.238-0.406c-0.099-0.168-0.141-0.238-0.309-0.378c1.009-1.135,1.835-2.535,2.438-4.146
		c0.294-0.799,0.448-1.345,0.504-1.821l0.98,0.252c-0.084,0.21-0.14,0.364-0.279,0.77c-0.295,0.869-0.673,1.779-1.051,2.55v7.438
		c0,0.826,0.014,1.288,0.056,1.736h-0.994c0.056-0.49,0.084-0.952,0.084-1.723L93.874,64.441L93.874,64.441z M100.079,63.419
		c-0.126,0.154-0.224,0.266-0.378,0.42c0.658,0.603,1.036,1.135,1.415,1.918c1.036-0.587,1.919-1.358,2.451-2.128l0.756,0.532
		c-0.56,0.561-0.952,0.911-1.639,1.458c0.477,0.84,0.658,1.105,1.037,1.555c0.532,0.63,1.008,1.036,1.778,1.526
		c-0.182,0.252-0.308,0.435-0.519,0.813c-0.882-0.687-1.33-1.12-1.933-1.892c-0.406-0.546-0.588-0.826-0.98-1.568
		c-0.225,0.141-0.42,0.252-0.687,0.393c0.014,0.056,0.014,0.056,0.028,0.111c0.182,0.561,0.28,1.205,0.28,1.779
		c0,0.757-0.154,1.274-0.463,1.541c-0.237,0.21-0.602,0.294-1.33,0.294c-0.364,0-0.574-0.014-1.037-0.056
		c-0.042-0.295-0.084-0.477-0.224-0.827c0.574,0.099,0.896,0.126,1.274,0.126c0.784,0,0.952-0.195,0.952-1.162
		c0-0.393-0.027-0.729-0.098-1.121c-1.387,1.178-2.815,1.947-5.043,2.773c-0.111-0.294-0.224-0.462-0.462-0.742
		c2.171-0.658,3.95-1.568,5.323-2.731c-0.112-0.364-0.211-0.56-0.393-0.868c-1.205,0.896-2.619,1.611-4.496,2.241
		c-0.154-0.308-0.238-0.435-0.448-0.7c1.33-0.364,2.213-0.715,3.319-1.316c0.532-0.295,0.757-0.435,1.232-0.799
		c-0.238-0.309-0.392-0.477-0.63-0.701c-1.022,0.714-1.779,1.037-3.446,1.5c-0.154-0.323-0.252-0.491-0.42-0.687
		c1.541-0.378,2.255-0.63,2.97-1.079c0.308-0.196,0.574-0.406,0.784-0.602h-1.513c-0.378,0-0.742,0.014-1.093,0.042
		c0.028-0.294,0.042-0.645,0.042-1.009v-1.122c-0.35,0.28-0.603,0.49-0.742,0.603c-0.154-0.238-0.294-0.393-0.546-0.588
		c1.078-0.714,1.666-1.261,2.409-2.157c0.518-0.63,0.756-1.022,0.994-1.639l0.967,0.21c-0.141,0.21-0.141,0.21-0.393,0.616
		c-0.028,0.056-0.07,0.126-0.14,0.224h2.017c0.477,0,0.841-0.014,1.093-0.042l0.49,0.42c-0.112,0.112-0.154,0.168-0.378,0.462
		c-0.28,0.364-0.757,0.896-0.995,1.107h2.228c0.532,0,0.799-0.014,1.093-0.042c-0.028,0.294-0.042,0.546-0.042,1.036v0.869
		c0,0.645,0,0.743,0.028,1.051c-0.295-0.028-0.589-0.042-1.079-0.042C103.492,63.419,100.079,63.419,100.079,63.419z M99.589,62.76
		c0.28-0.462,0.406-0.84,0.532-1.555h-2.829v1.555H99.589z M100.289,60.547c0.477-0.448,0.729-0.743,1.079-1.261h-2.83
		c-0.322,0.406-0.729,0.854-1.134,1.261H100.289z M103.722,62.76v-1.555h-2.774c-0.21,0.869-0.308,1.19-0.476,1.555H103.722z"/>
</g>
</svg>
