<?xml version="1.0" encoding="utf-8"?>
<!-- Generator: Adobe Illustrator 16.0.0, SVG Export Plug-In . SVG Version: 6.00 Build 0)  -->
<!DOCTYPE svg PUBLIC "-//W3C//DTD SVG 1.1//EN" "http://www.w3.org/Graphics/SVG/1.1/DTD/svg11.dtd">
<svg version="1.1" id="图层_1" xmlns="http://www.w3.org/2000/svg" xmlns:xlink="http://www.w3.org/1999/xlink" x="0px" y="0px"
	 width="48px" height="45px" viewBox="0 0 48 45" enable-background="new 0 0 48 45" xml:space="preserve">
<path fill="#E1933D" d="M3,0h43.001C47.106,0,48,0.895,48,1.998V45"/>
<path fill="#FFFFFF" d="M34.188,23.048c-0.316,0.307-0.82,0.299-1.125-0.018l-8.276-8.541c-0.306-0.316-0.298-0.82,0.018-1.126
	l8.542-8.275c0.317-0.306,0.822-0.297,1.127,0.018l8.274,8.542c0.306,0.315,0.298,0.82-0.018,1.126L34.188,23.048z"/>
<rect x="28.367" y="12.987" transform="matrix(0.6958 0.7183 -0.7183 0.6958 20.2487 -19.8838)" fill="#E1933D" width="10.458" height="1.948"/>
<rect x="28.431" y="12.924" transform="matrix(-0.7183 0.6957 -0.6957 -0.7183 67.5074 0.4644)" fill="#E1933D" width="10.458" height="1.95"/>
</svg>
