<?xml version="1.0" encoding="utf-8"?>
<!-- Generator: Adobe Illustrator 16.0.0, SVG Export Plug-In . SVG Version: 6.00 Build 0)  -->
<!DOCTYPE svg PUBLIC "-//W3C//DTD SVG 1.1//EN" "http://www.w3.org/Graphics/SVG/1.1/DTD/svg11.dtd">
<svg version="1.1" id="图层_1" xmlns="http://www.w3.org/2000/svg" xmlns:xlink="http://www.w3.org/1999/xlink" x="0px" y="0px"
	 width="40px" height="40px" viewBox="0 0 40 40" enable-background="new 0 0 40 40" xml:space="preserve">
<path fill="#0D4083" d="M20,2.496c-9.941,0-18,8.058-18,18c0,9.939,8.059,18,18,18c9.94,0,18-8.061,18-18
	C38,10.554,29.939,2.496,20,2.496 M29.596,21.46c-0.141,1.402-0.588,2.711-1.266,3.871l1.01,3.1l-4.67,3.395l-2.631-1.912
	c-0.658,0.143-1.34,0.221-2.04,0.221c-0.699,0-1.381-0.078-2.039-0.221l-2.631,1.912l-4.67-3.395l1.008-3.1
	c-0.676-1.16-1.125-2.469-1.264-3.871l-2.629-1.912l1.783-5.49h3.268c0.906-1.01,2.02-1.833,3.281-2.391l1.006-3.098h5.772
	l1.008,3.098c1.262,0.558,2.375,1.381,3.281,2.391h3.268l1.783,5.49L29.596,21.46z"/>
</svg>
