<?xml version="1.0" encoding="utf-8"?>
<!-- Generator: Adobe Illustrator 16.0.0, SVG Export Plug-In . SVG Version: 6.00 Build 0)  -->
<!DOCTYPE svg PUBLIC "-//W3C//DTD SVG 1.1//EN" "http://www.w3.org/Graphics/SVG/1.1/DTD/svg11.dtd">
<svg version="1.1" id="图层_1" xmlns="http://www.w3.org/2000/svg" xmlns:xlink="http://www.w3.org/1999/xlink" x="0px" y="0px"
	 width="45px" height="45px" viewBox="0 0 45 45" enable-background="new 0 0 45 45" xml:space="preserve">
<path fill="#0D4083" d="M22.5,4.625c-9.871,0-17.875,8.002-17.875,17.875c0,9.87,8.004,17.875,17.875,17.875
	c9.873,0,17.875-8.005,17.875-17.875C40.375,12.627,32.373,4.625,22.5,4.625z M32.928,29.95H12.074v-9.938l7.292,5.055
	c0.93,0.635,2.036,0.91,3.134,0.914c1.093-0.001,2.197-0.279,3.131-0.914l7.297-5.055V29.95z M32.928,17.112l-8.654,5.996
	c-0.424,0.298-1.096,0.494-1.773,0.493c-0.682,0.001-1.354-0.195-1.775-0.493l-8.651-5.993v-2.064h20.854V17.112z"/>
</svg>
