<?xml version="1.0" encoding="utf-8"?>
<!-- Generator: Adobe Illustrator 16.0.0, SVG Export Plug-In . SVG Version: 6.00 Build 0)  -->
<!DOCTYPE svg PUBLIC "-//W3C//DTD SVG 1.1//EN" "http://www.w3.org/Graphics/SVG/1.1/DTD/svg11.dtd">
<svg version="1.1" id="图层_1" xmlns="http://www.w3.org/2000/svg" xmlns:xlink="http://www.w3.org/1999/xlink" x="0px" y="0px"
	 width="40px" height="40px" viewBox="0 0 40 40" enable-background="new 0 0 40 40" xml:space="preserve">
<rect x="2" y="1.699" fill="none" width="36.3" height="36.301"/>
<path fill="#0D4083" d="M32.727,32.729c7.031-7.028,7.031-18.429,0-25.458c-7.027-7.029-18.426-7.027-25.457,0
	C0.286,14.253,0.247,25.539,7.133,32.58l4.045-8.579c-1.617-3.572-0.97-7.918,1.965-10.855c3.787-3.785,9.922-3.785,13.71,0
	c3.782,3.785,3.782,9.923,0,13.709c-2.939,2.937-7.287,3.583-10.859,1.964l-8.575,4.045C14.459,39.749,25.747,39.711,32.727,32.729"
	/>
<rect x="2" y="2" fill="none" width="36" height="35.997"/>
</svg>
