<?xml version="1.0" encoding="utf-8"?>
<!-- Generator: Adobe Illustrator 16.0.0, SVG Export Plug-In . SVG Version: 6.00 Build 0)  -->
<!DOCTYPE svg PUBLIC "-//W3C//DTD SVG 1.1//EN" "http://www.w3.org/Graphics/SVG/1.1/DTD/svg11.dtd">
<svg version="1.1" id="图层_1" xmlns="http://www.w3.org/2000/svg" xmlns:xlink="http://www.w3.org/1999/xlink" x="0px" y="0px"
	 width="40px" height="40px" viewBox="0 0 40 40" enable-background="new 0 0 40 40" xml:space="preserve">
<rect x="2" y="2" fill="none" width="36" height="36"/>
<rect x="2" y="2" fill="none" width="36" height="36"/>
<path fill="#0D4083" d="M34.106,7.695l-5.772,19.177l-20.23-6.091L13.757,2C8.653,3.896,4.458,8.056,2.765,13.673
	c-2.865,9.517,2.528,19.559,12.047,22.424c9.52,2.868,19.559-2.527,22.425-12.045C39,18.198,37.629,12.154,34.106,7.695"/>
<rect x="16.078" y="4.371" transform="matrix(0.9575 0.2884 -0.2884 0.9575 2.6665 -6.5769)" fill="#0D4083" width="15.159" height="2.783"/>
<rect x="14.338" y="10.151" transform="matrix(0.9576 0.2882 -0.2882 0.9576 4.2568 -5.8274)" fill="#0D4083" width="15.158" height="2.781"/>
<rect x="12.597" y="15.931" transform="matrix(-0.9575 -0.2883 0.2883 -0.9575 34.501 39.7247)" fill="#0D4083" width="15.158" height="2.782"/>
<rect x="1.996" y="2" fill="none" width="36.008" height="34.867"/>
</svg>
