<?xml version="1.0" encoding="utf-8"?>
<!-- Generator: Adobe Illustrator 17.0.0, SVG Export Plug-In . SVG Version: 6.00 Build 0)  -->
<!DOCTYPE svg PUBLIC "-//W3C//DTD SVG 1.1//EN" "http://www.w3.org/Graphics/SVG/1.1/DTD/svg11.dtd">
<svg version="1.1" id="图层_1" xmlns="http://www.w3.org/2000/svg" xmlns:xlink="http://www.w3.org/1999/xlink" x="0px" y="0px"
	 width="16px" height="16px" viewBox="0 0 16 16" enable-background="new 0 0 16 16" xml:space="preserve">
<circle fill="#0D4083" cx="8" cy="8" r="8"/>
<g>
	<path fill="#FFFFFF" d="M7.292,10.482c0.049-0.295,0.049-0.394,0.049-0.8c0-0.641,0.135-1.047,0.456-1.478
		C8.043,7.872,8.166,7.773,8.88,7.281c0.444-0.308,0.652-0.48,0.838-0.665c0.283-0.295,0.431-0.653,0.431-1.022
		c0-0.924-0.812-1.564-1.982-1.564c-0.8,0-1.428,0.271-1.835,0.776c-0.21,0.27-0.309,0.504-0.444,1.021l-1.034-0.16
		c0.259-0.898,0.505-1.318,1.01-1.736c0.567-0.48,1.367-0.727,2.339-0.727c1.7,0,2.943,0.961,2.943,2.278
		c0,0.469-0.098,0.85-0.295,1.195c-0.222,0.369-0.443,0.591-1.121,1.072C9.004,8.253,8.795,8.425,8.622,8.672
		c-0.221,0.307-0.32,0.652-0.32,1.132c0,0.198,0.012,0.406,0.049,0.678H7.292z M8.425,11.638v1.158H7.231v-1.158H8.425z"/>
</g>
</svg>
