<?xml version="1.0" encoding="utf-8"?>
<!-- Generator: Adobe Illustrator 16.0.0, SVG Export Plug-In . SVG Version: 6.00 Build 0)  -->
<!DOCTYPE svg PUBLIC "-//W3C//DTD SVG 1.1//EN" "http://www.w3.org/Graphics/SVG/1.1/DTD/svg11.dtd">
<svg version="1.1" id="图层_1" xmlns="http://www.w3.org/2000/svg" xmlns:xlink="http://www.w3.org/1999/xlink" x="0px" y="0px"
	 width="28px" height="28px" viewBox="0 0 28 28" enable-background="new 0 0 28 28" xml:space="preserve">
<circle fill="#0D4083" cx="14" cy="14" r="13.499"/>
<path fill="#FFFFFF" d="M20.295,14.598c-0.199,0.284-0.592,0.353-0.874,0.155L9.59,7.871c-0.285-0.199-0.353-0.59-0.155-0.874l0,0
	c0.2-0.284,0.59-0.353,0.874-0.153l9.831,6.882C20.424,13.924,20.493,14.315,20.295,14.598L20.295,14.598z"/>
<path fill="#FFFFFF" d="M20.261,13.963c0.223,0.267,0.188,0.662-0.075,0.884l-9.179,7.731c-0.265,0.224-0.661,0.191-0.884-0.075l0,0
	c-0.223-0.266-0.189-0.659,0.077-0.884l9.177-7.731C19.643,13.666,20.039,13.698,20.261,13.963L20.261,13.963z"/>
</svg>
