<?xml version="1.0" encoding="utf-8"?>
<!-- Generator: Adobe Illustrator 16.0.0, SVG Export Plug-In . SVG Version: 6.00 Build 0)  -->
<!DOCTYPE svg PUBLIC "-//W3C//DTD SVG 1.1//EN" "http://www.w3.org/Graphics/SVG/1.1/DTD/svg11.dtd">
<svg version="1.1" id="图层_1" xmlns="http://www.w3.org/2000/svg" xmlns:xlink="http://www.w3.org/1999/xlink" x="0px" y="0px"
	 width="48px" height="45px" viewBox="0 0 48 45" enable-background="new 0 0 48 45" xml:space="preserve">
<path fill="#3EB3DE" d="M3.5,0.006h42.523C47.115,0.006,48,0.891,48,1.982v42.524"/>
<g>
	<path fill="#FFFFFF" d="M24.699,14.21l-0.963-0.941l0.665-2.783c0.134-0.557,0.175-0.983,0.125-1.28
		c-0.05-0.297-0.198-0.564-0.44-0.801L23.497,7.83l-2.603,2.665l-0.817-0.799l6.184-6.33l1.928,1.883
		c0.615,0.602,0.953,1.221,1.013,1.859c0.059,0.638-0.174,1.222-0.695,1.756c-0.856,0.878-1.881,0.99-3.074,0.335l-0.021,0.021
		c0.103,0.244,0.151,0.496,0.146,0.756c-0.007,0.259-0.07,0.653-0.19,1.181L24.699,14.21z M26.379,4.879l-2.184,2.235l0.965,0.942
		c0.373,0.364,0.782,0.551,1.229,0.561c0.445,0.009,0.841-0.163,1.188-0.518c0.322-0.33,0.467-0.69,0.436-1.083
		c-0.031-0.393-0.25-0.788-0.655-1.185L26.379,4.879z"/>
	<path fill="#FFFFFF" d="M30.711,20.081l-0.969-0.945l1.627-8.034c0.045-0.227,0.107-0.435,0.186-0.625l-0.023-0.023
		c-0.117,0.163-0.396,0.469-0.834,0.919l-4.347,4.45l-0.81-0.79l6.184-6.331l1.024,1.002l-1.627,7.865
		c-0.077,0.371-0.132,0.603-0.166,0.692l0.016,0.016c0.149-0.206,0.437-0.527,0.863-0.963l4.25-4.353l0.81,0.791L30.711,20.081z"/>
	<path fill="#FFFFFF" d="M37.32,26.535l-0.903-0.881l1.047-2.363l-2.637-2.575l-2.302,1.138l-0.902-0.882l8.593-3.975l0.875,0.854
		L37.32,26.535z M37.908,22.327l1.614-3.566c0.052-0.114,0.162-0.292,0.333-0.537l-0.021-0.02c-0.217,0.161-0.395,0.276-0.532,0.341
		l-3.52,1.706L37.908,22.327z"/>
</g>
</svg>
