<?xml version="1.0" encoding="utf-8"?>
<!-- Generator: Adobe Illustrator 17.0.0, SVG Export Plug-In . SVG Version: 6.00 Build 0)  -->
<!DOCTYPE svg PUBLIC "-//W3C//DTD SVG 1.1//EN" "http://www.w3.org/Graphics/SVG/1.1/DTD/svg11.dtd">
<svg version="1.1" id="图层_1" xmlns="http://www.w3.org/2000/svg" xmlns:xlink="http://www.w3.org/1999/xlink" x="0px" y="0px"
	 width="337px" height="316px" viewBox="0 0 337 316" enable-background="new 0 0 337 316" xml:space="preserve">
<g>
	<path fill="#004181" d="M72.32,87.587c0.271-6.118,1.23-12.301,2.954-18.451c12.149-43.357,57.144-68.655,100.501-56.507
		c14.083,3.945,26.242,11.371,35.851,21.067c12.436-8.34,28.301-11.402,43.85-7.045c28.195,7.9,44.647,37.163,36.747,65.357
		c-0.844,3.017-1.949,5.89-3.255,8.621c36.036,15.296,55.982,55.32,45.139,94.016c-11.106,39.638-50.535,63.661-90.242,56.39
		c-0.346,1.583-0.725,3.163-1.169,4.745c-12.284,43.845-57.786,69.427-101.631,57.142c-22.12-6.199-50.748-29.627-55.069-57.084
		l-1.131-1.722c-35.952,24.754-72.33,13.863-72.33,13.863c26.449-16.772,38.018-39.919,43.019-58.428
		c-0.288-0.074-0.576-0.138-0.865-0.22c-32.984-9.243-52.229-43.472-42.989-76.457C19.464,105.175,44.85,87.172,72.32,87.587z"/>
	<path fill="#00ADD7" d="M58.095,83.342c-0.207-6.12,0.267-12.359,1.506-18.625c8.734-44.171,51.622-72.899,95.793-64.166
		c14.348,2.836,27.049,9.291,37.383,18.208c11.749-9.284,27.327-13.573,43.169-10.441c28.725,5.679,47.407,33.571,41.728,62.295
		c-0.607,3.073-1.483,6.023-2.573,8.849c37.118,12.441,60.123,50.789,52.328,90.213c-7.984,40.383-45.421,67.405-85.573,63.25
		c-0.221,1.605-0.475,3.21-0.795,4.821c-8.831,44.669-52.201,73.72-96.87,64.888c-22.535-4.457-52.902-25.582-59.349-52.618
		l-1.262-1.629c-33.914,27.479-71.03,19.457-71.03,19.457c25.062-18.781,34.792-42.76,38.336-61.603
		c-0.294-0.051-0.586-0.092-0.88-0.151c-33.604-6.644-55.458-39.27-48.816-72.874C6.77,104.996,30.676,85.07,58.095,83.342z"/>
	<g>
		<path fill="#FFFFFF" d="M50.903,178.041c4.555,2.474,11.122,4.385,17.905,4.017c10.062-0.545,15.652-6.176,15.236-13.864
			c-0.386-7.123-4.678-10.972-15.18-14.37c-12.676-3.735-20.713-9.763-21.295-20.504c-0.643-11.87,8.714-21.222,23.524-22.025
			c7.8-0.423,13.552,1.079,17.048,2.816l-2.279,8.174c-2.561-1.221-7.771-3.208-14.667-2.834
			c-10.401,0.565-14.021,6.998-13.739,12.198c0.386,7.122,5.211,10.376,15.947,13.876c13.158,4.275,20.053,10.138,20.66,21.33
			c0.637,11.759-7.516,22.404-25.491,23.379c-7.348,0.399-15.492-1.313-19.709-3.805L50.903,178.041z"/>
		<path fill="#FFFFFF" d="M156.994,156.413c1.098,20.237-12.443,29.816-25.671,30.534c-14.81,0.803-26.817-9.431-27.755-26.728
			c-0.993-18.315,10.409-29.705,25.557-30.527C144.84,128.839,156.087,139.682,156.994,156.413z M113.611,159.334
			c0.65,11.983,8.037,20.654,17.759,20.127c9.497-0.515,16.134-9.834,15.466-22.157c-0.503-9.271-5.775-20.776-17.533-20.138
			C117.546,137.803,113.048,148.932,113.611,159.334z"/>
		<path fill="#FFFFFF" d="M169.009,145.898c-0.349-6.444-0.762-11.978-1.378-17.046l8.706-0.472l0.922,10.722l0.452-0.025
			c2.088-7.484,7.829-12.445,14.499-12.806c1.132-0.061,1.927,0.01,2.845,0.187l0.509,9.383c-1.03-0.171-2.054-0.228-3.411-0.154
			c-7.01,0.38-11.695,5.962-12.647,13.498c-0.152,1.369-0.292,2.965-0.2,4.661l1.581,29.167l-9.835,0.534L169.009,145.898z"/>
		<path fill="#FFFFFF" d="M206.431,143.868c-0.35-6.444-0.763-11.978-1.378-17.046l8.705-0.472l0.922,10.723l0.452-0.025
			c2.089-7.484,7.829-12.445,14.5-12.806c1.13-0.061,1.927,0.009,2.843,0.186l0.509,9.383c-1.03-0.171-2.053-0.228-3.411-0.154
			c-7.008,0.38-11.695,5.962-12.646,13.498c-0.152,1.369-0.293,2.965-0.202,4.661l1.583,29.167l-9.836,0.534L206.431,143.868z"/>
		<path fill="#FFFFFF" d="M248.917,124.443l13.737,31.683c1.44,3.551,3.031,7.773,4.112,11.003l0.226-0.012
			c0.84-3.334,1.744-7.578,2.885-11.609l9.113-32.695l10.515-0.57l-12.809,39.812c-6.104,19.153-10.444,29.027-16.909,35.273
			c-4.628,4.559-9.397,6.521-11.861,7.107l-2.94-8.231c2.444-0.927,5.638-2.687,8.442-5.334c2.597-2.296,5.78-6.322,7.765-11.533
			c0.397-1.043,0.692-1.851,0.661-2.418c-0.03-0.565-0.298-1.344-0.819-2.563l-22.971-49.325L248.917,124.443z"/>
	</g>
</g>
</svg>
