<?xml version="1.0" encoding="utf-8"?>
<!-- Generator: Adobe Illustrator 17.0.0, SVG Export Plug-In . SVG Version: 6.00 Build 0)  -->
<!DOCTYPE svg PUBLIC "-//W3C//DTD SVG 1.1//EN" "http://www.w3.org/Graphics/SVG/1.1/DTD/svg11.dtd">
<svg version="1.1" id="图层_1" xmlns="http://www.w3.org/2000/svg" xmlns:xlink="http://www.w3.org/1999/xlink" x="0px" y="0px"
	 width="22.549px" height="22.801px" viewBox="0 0 22.549 22.801" enable-background="new 0 0 22.549 22.801" xml:space="preserve">
<g>
	<path fill="#FFFFFF" d="M22.54,18.153c0,2.497-2.024,4.52-4.52,4.52H4.459c-2.497,0-4.52-2.024-4.52-4.52V4.591
		c0-2.497,2.024-4.52,4.52-4.52H18.02c2.497,0,4.52,2.024,4.52,4.52V18.153z"/>
	<g>
		<g>
			<path fill="#D06D12" d="M9.407,11.19L5.5,5.765h3.285l1.483,2.303c0.341,0.53,0.661,1.076,1.102,1.773h0.1
				c0.361-0.697,0.661-1.243,0.982-1.773l1.402-2.303h3.125l-3.906,5.531l4.167,5.682h-3.285l-1.663-2.485
				c-0.38-0.576-0.721-1.167-1.162-1.849h-0.08c-0.38,0.682-0.721,1.273-1.082,1.849l-1.583,2.485H5.24L9.407,11.19z"/>
		</g>
	</g>
</g>
</svg>
