<?xml version="1.0" encoding="utf-8"?>
<!-- Generator: Adobe Illustrator 17.0.0, SVG Export Plug-In . SVG Version: 6.00 Build 0)  -->
<!DOCTYPE svg PUBLIC "-//W3C//DTD SVG 1.1//EN" "http://www.w3.org/Graphics/SVG/1.1/DTD/svg11.dtd">
<svg version="1.1" id="图层_1" xmlns="http://www.w3.org/2000/svg" xmlns:xlink="http://www.w3.org/1999/xlink" x="0px" y="0px"
	 width="140.909px" height="32.064px" viewBox="0 0 140.909 32.064" enable-background="new 0 0 140.909 32.064"
	 xml:space="preserve">
<g>
	<path fill="#D06D12" d="M27.789,13.434c-1.249,4.557-3.274,8.134-5.94,10.969c2.7,1.553,5.907,2.7,9.687,3.375
		c-0.877,0.844-2.059,2.565-2.599,3.645c-4.05-0.877-7.425-2.295-10.294-4.252c-2.599,1.89-5.636,3.341-8.944,4.354
		c-0.506-1.013-1.485-2.599-2.261-3.409c2.97-0.743,5.704-1.958,8.033-3.578c-1.755-1.823-3.274-3.916-4.489-6.379
		c-1.553,4.456-3.881,8.877-7.527,12.185c-0.844-1.046-2.126-2.092-3.443-2.835C5.85,22.715,8.078,15.087,8.989,8.944H1.294V5.029
		h8.168C9.631,2.835,9.664,1.046,9.732,0h4.186c-0.067,1.215-0.135,2.97-0.337,5.029h17.045v3.915H13.141
		c-0.169,1.114-0.371,2.261-0.641,3.477h11.813l0.743-0.169L27.789,13.434z M14.086,16.302c1.147,2.16,2.599,4.084,4.455,5.67
		c1.586-1.586,2.937-3.51,3.881-5.67H14.086z"/>
	<path fill="#D06D12" d="M36.221,15.492c0.709-2.295,1.215-6.075,1.384-8.809l2.835,0.371c-0.067,2.802-0.607,6.818-1.316,9.417
		L36.221,15.492z M68.083,10.7v2.869H45.976V10.7h8.944V9.248h-6.987L48,9.417L45.368,10.7c-0.236-0.979-0.708-2.396-1.249-3.713
		v24.538h-3.612V0.034h3.612v5.4l1.924-0.81c0.709,1.452,1.485,3.341,1.89,4.59V6.548h6.987v-1.35h-7.898V2.329h7.898V0.034h3.982
		v2.295h8.168v2.869h-8.168v1.35h7.257v2.7h-7.257V10.7H68.083z M65.822,27.711c0,1.755-0.337,2.7-1.553,3.24
		c-1.181,0.574-2.869,0.574-5.198,0.574c-0.135-0.979-0.607-2.43-1.08-3.409c1.384,0.102,2.97,0.067,3.409,0.067
		c0.473,0,0.641-0.135,0.641-0.54v-1.114H51.95v5.063h-3.713V14.851h17.585V27.711z M51.95,17.788v1.586h10.092v-1.586H51.95z
		 M62.042,23.762v-1.553H51.95v1.553H62.042z"/>
	<path fill="#D06D12" d="M80.498,19.002v7.864c0,1.856-0.304,2.835-1.316,3.443c-1.013,0.675-2.498,0.81-4.658,0.776
		c-0.101-0.979-0.54-2.633-1.046-3.679c1.249,0.034,2.396,0.034,2.801,0c0.405,0,0.574-0.135,0.574-0.574v-6.75
		c-1.114,0.304-2.126,0.608-3.105,0.878l-0.911-3.882c1.147-0.236,2.498-0.607,4.017-0.979v-5.975h-3.646V6.413h3.646V0.034H80.5
		v6.379h3.375v3.712H80.5v4.996l3.038-0.81l0.54,3.611L80.498,19.002z M95.855,27.508c0.776,0.067,1.519,0.101,2.363,0.101
		c1.147,0,5.333,0,6.784-0.034c-0.473,0.81-0.945,2.498-1.08,3.51h-5.873c-4.421,0-7.83-0.81-10.125-4.894
		c-0.877,2.126-2.059,3.915-3.544,5.299c-0.607-0.642-2.126-1.89-2.937-2.396c2.801-2.228,4.185-5.974,4.691-10.564l3.646,0.438
		c-0.169,1.215-0.372,2.363-0.641,3.409c0.742,1.958,1.721,3.173,2.936,3.949v-8.809h-7.932v-3.24h19.948v3.24h-8.236v2.97h6.447
		v3.139h-6.447C95.855,23.626,95.855,27.508,95.855,27.508z M102.403,12.725H85.797V1.08h16.606V12.725z M98.555,3.881h-9.079v1.688
		h9.079V3.881z M98.555,8.168h-9.079V9.89h9.079V8.168z"/>
	<path fill="#D06D12" d="M119.375,17.889c-1.485,3.949-4.017,8.033-6.413,10.564c-0.844-0.708-2.667-1.89-3.713-2.396
		c2.43-2.228,4.691-5.806,5.873-9.282L119.375,17.889z M127.611,14.311v12.522c0,2.262-0.473,3.375-2.059,4.017
		c-1.552,0.642-3.78,0.709-6.716,0.709c-0.203-1.249-0.811-3.072-1.418-4.287c1.924,0.101,4.287,0.135,4.928,0.101
		c0.642,0,0.878-0.168,0.878-0.641V14.311H110.33v-4.017h30.006v4.017H127.611z M137.196,6.177H113.4V2.194h23.796V6.177z
		 M134.834,16.64c2.227,3.105,4.658,7.189,5.603,10.058l-4.186,1.856c-0.743-2.768-3.038-7.122-5.198-10.329L134.834,16.64z"/>
</g>
</svg>
