<?xml version="1.0" encoding="utf-8"?>
<!-- Generator: Adobe Illustrator 16.0.0, SVG Export Plug-In . SVG Version: 6.00 Build 0)  -->
<!DOCTYPE svg PUBLIC "-//W3C//DTD SVG 1.1//EN" "http://www.w3.org/Graphics/SVG/1.1/DTD/svg11.dtd">
<svg version="1.1" id="图层_1" xmlns="http://www.w3.org/2000/svg" xmlns:xlink="http://www.w3.org/1999/xlink" x="0px" y="0px"
	 width="48px" height="45px" viewBox="0 0 48 45" enable-background="new 0 0 48 45" xml:space="preserve">
<path fill="#656464" d="M3,0h43.001C47.105,0,48,0.896,48,1.999V45"/>
<g>
	<path fill="#FFFFFF" d="M28.624,7.675l-1.888-1.761l-5.402,5.792l-0.85-0.792l5.402-5.792l-1.88-1.753l0.701-0.752l4.618,4.307
		L28.624,7.675z"/>
	<path fill="#FFFFFF" d="M26.365,10.427c0.985-1.056,2.056-1.63,3.21-1.723c1.155-0.091,2.221,0.317,3.198,1.229
		c0.909,0.848,1.357,1.837,1.342,2.966c-0.016,1.128-0.479,2.183-1.394,3.163c-0.99,1.062-2.061,1.639-3.21,1.73
		s-2.2-0.306-3.152-1.194c-0.93-0.867-1.39-1.868-1.379-3.001C24.99,12.464,25.451,11.407,26.365,10.427z M27.315,11.187
		c-0.738,0.792-1.128,1.614-1.169,2.468s0.265,1.585,0.915,2.192c0.698,0.651,1.46,0.934,2.285,0.848
		c0.825-0.086,1.621-0.541,2.389-1.363c0.788-0.845,1.201-1.679,1.239-2.501c0.037-0.823-0.283-1.551-0.962-2.184
		c-0.667-0.623-1.434-0.885-2.3-0.787C28.849,9.959,28.048,10.401,27.315,11.187z"/>
	<path fill="#FFFFFF" d="M33.416,17.002c0.985-1.056,2.055-1.63,3.209-1.723c1.155-0.091,2.222,0.318,3.199,1.229
		c0.909,0.848,1.356,1.837,1.341,2.966c-0.015,1.128-0.479,2.183-1.394,3.163c-0.99,1.062-2.061,1.639-3.21,1.73
		c-1.148,0.092-2.2-0.307-3.151-1.194c-0.931-0.867-1.39-1.867-1.38-3C32.039,19.04,32.502,17.982,33.416,17.002z M34.366,17.763
		c-0.738,0.792-1.128,1.614-1.169,2.468c-0.042,0.854,0.264,1.584,0.915,2.191c0.698,0.651,1.459,0.934,2.285,0.848
		c0.825-0.086,1.621-0.54,2.389-1.362c0.788-0.845,1.2-1.679,1.239-2.501c0.037-0.824-0.283-1.551-0.962-2.184
		c-0.668-0.623-1.434-0.885-2.301-0.787C35.898,16.535,35.099,16.977,34.366,17.763z"/>
	<path fill="#FFFFFF" d="M41.361,30.385l-3.451-3.219l6.104-6.544l0.845,0.788l-5.406,5.796l2.606,2.432L41.361,30.385z"/>
</g>
</svg>
