<?xml version="1.0" encoding="utf-8"?>
<!-- Generator: Adobe Illustrator 16.0.0, SVG Export Plug-In . SVG Version: 6.00 Build 0)  -->
<!DOCTYPE svg PUBLIC "-//W3C//DTD SVG 1.1//EN" "http://www.w3.org/Graphics/SVG/1.1/DTD/svg11.dtd">
<svg version="1.1" id="图层_1" xmlns="http://www.w3.org/2000/svg" xmlns:xlink="http://www.w3.org/1999/xlink" x="0px" y="0px"
	 width="69px" height="139px" viewBox="0 0 69 139" enable-background="new 0 0 69 139" xml:space="preserve">
<path fill="none" stroke="#656766" stroke-miterlimit="10" d="M1,10.07c0-0.271,0.434-0.452,0.707-0.452h4.72
	c0.273,0,0.25,0.183,0.25,0.452v9.206c0,0.271,0.022,0.751-0.25,0.751h-4.72C1.434,20.026,1,19.545,1,19.275V10.07z"/>
<path fill="none" stroke="#656766" stroke-linecap="round" stroke-linejoin="bevel" stroke-miterlimit="10" d="M13.773,8.672h5.262
	c0.633,0,1.191,1.552,1.066,2.146c0,0-1.529,6.235-1.901,7.196c-0.373,0.961-1.617,1.065-1.885,1.065H15.35"/>
<path fill="none" stroke="#656766" stroke-linecap="round" stroke-miterlimit="10" d="M7.221,10.744l0.979-0.388l2.087-3.703
	c0,0-0.083-1.96,0.126-2.551c0.208-0.59,2.122-1.666,3.248,0.746c1.126,2.41,0,3.757,0,3.757"/>
<path fill="none" stroke="#656766" stroke-linecap="round" stroke-linejoin="bevel" stroke-miterlimit="10" d="M10.605,19.065
	c-0.983-0.359-3.515-1.313-3.515-1.313"/>
<line fill="none" stroke="#656766" stroke-linecap="round" stroke-miterlimit="10" x1="10.62" y1="19.08" x2="16.296" y2="19.08"/>
<path fill="none" stroke="#113F7E" stroke-miterlimit="10" d="M46.932,10.07c0-0.271,0.434-0.452,0.707-0.452h4.721
	c0.273,0,0.249,0.183,0.249,0.452v9.206c0,0.271,0.022,0.751-0.249,0.751h-4.721c-0.274,0-0.707-0.481-0.707-0.751V10.07z"/>
<path fill="none" stroke="#113F7E" stroke-linecap="round" stroke-linejoin="bevel" stroke-miterlimit="10" d="M59.704,8.672h5.263
	c0.633,0,1.191,1.552,1.066,2.146c0,0-1.53,6.235-1.901,7.196c-0.372,0.961-1.618,1.065-1.885,1.065h-0.965"/>
<path fill="none" stroke="#113F7E" stroke-linecap="round" stroke-miterlimit="10" d="M53.151,10.744l0.979-0.388l2.087-3.703
	c0,0-0.083-1.96,0.125-2.551c0.209-0.59,2.123-1.666,3.249,0.746c1.126,2.41,0,3.757,0,3.757"/>
<path fill="none" stroke="#113F7E" stroke-linecap="round" stroke-linejoin="bevel" stroke-miterlimit="10" d="M56.536,19.065
	c-0.983-0.359-3.514-1.313-3.514-1.313"/>
<line fill="none" stroke="#113F7E" stroke-linecap="round" stroke-miterlimit="10" x1="56.552" y1="19.08" x2="62.228" y2="19.08"/>
<path fill="none" stroke="#656766" stroke-linecap="round" stroke-miterlimit="10" d="M10.247,37.036l1.655,5.373
	c0.078,0.25,0.301,0.447,0.552,0.447h5.354c0.562,0,0.795,0.728,0.339,1.074l-4.328,3.276c-0.204,0.155-0.289,0.423-0.212,0.674
	l1.656,5.333c0.173,0.561-0.439,1.025-0.894,0.68l-4.334-3.307c-0.203-0.155-0.478-0.156-0.681-0.002l-4.334,3.303
	c-0.455,0.346-1.065-0.12-0.893-0.681l1.654-5.331c0.079-0.25-0.006-0.527-0.209-0.681l-4.33-3.264
	c-0.456-0.346-0.223-1.074,0.339-1.074h5.355c0.251,0,0.474-0.196,0.551-0.447l1.656-5.36C9.316,36.488,10.072,36.475,10.247,37.036
	"/>
<path fill="none" stroke="#113F7E" stroke-linecap="round" stroke-miterlimit="10" d="M55.89,37.036l1.656,5.373
	c0.075,0.25,0.3,0.447,0.55,0.447h5.357c0.559,0,0.792,0.728,0.336,1.074l-4.327,3.276c-0.204,0.155-0.287,0.423-0.213,0.674
	l1.657,5.333c0.173,0.561-0.439,1.025-0.895,0.68l-4.333-3.307c-0.203-0.155-0.479-0.156-0.682-0.002l-4.333,3.303
	c-0.457,0.346-1.066-0.12-0.894-0.681l1.653-5.331c0.078-0.25-0.006-0.527-0.21-0.681l-4.33-3.264
	c-0.456-0.346-0.221-1.074,0.34-1.074h5.355c0.251,0,0.473-0.196,0.552-0.447l1.655-5.36C54.96,36.488,55.716,36.475,55.89,37.036"
	/>
<path fill="none" stroke="#656766" stroke-miterlimit="10" d="M8.946,77.22c-4.353,0-7.895,3.079-7.895,6.864
	c0,1.833,0.833,3.503,2.186,4.734c0.095,0.086,0.151,0.205,0.151,0.332v3.742c-0.112,0.407,0.343,0.733,0.7,0.506l3.064-2.47
	c0.104-0.083,0.237-0.117,0.369-0.097c0.462,0.074,0.938,0.113,1.424,0.113c4.353,0,7.895-3.078,7.895-6.861
	C16.841,80.299,13.299,77.22,8.946,77.22z"/>
<path fill="#656766" d="M6.706,84.556c0,0.485-0.4,0.882-0.895,0.882c-0.494,0-0.895-0.396-0.895-0.882
	c0-0.487,0.401-0.882,0.895-0.882C6.306,83.674,6.706,84.068,6.706,84.556"/>
<path fill="#656766" d="M9.915,84.557c0,0.485-0.401,0.882-0.896,0.882c-0.494,0-0.895-0.396-0.895-0.882
	c0-0.487,0.4-0.882,0.895-0.882C9.514,83.675,9.915,84.069,9.915,84.557"/>
<path fill="#656766" d="M12.977,84.511c0,0.485-0.399,0.881-0.895,0.881c-0.494,0-0.895-0.396-0.895-0.881
	c0-0.487,0.401-0.882,0.895-0.882C12.577,83.629,12.977,84.023,12.977,84.511"/>
<path fill="none" stroke="#113F7E" stroke-miterlimit="10" d="M54.611,77.22c-4.353,0-7.894,3.079-7.894,6.864
	c0,1.833,0.832,3.503,2.186,4.734c0.096,0.086,0.151,0.205,0.151,0.332v3.742c-0.112,0.407,0.343,0.733,0.7,0.506l3.064-2.47
	c0.104-0.083,0.236-0.117,0.367-0.097c0.464,0.074,0.938,0.113,1.425,0.113c4.354,0,7.895-3.078,7.895-6.861
	C62.506,80.299,58.965,77.22,54.611,77.22z"/>
<path fill="#113F7E" d="M52.456,84.557c0,0.485-0.401,0.883-0.896,0.883c-0.495,0-0.896-0.397-0.896-0.883
	c0-0.488,0.401-0.883,0.896-0.883C52.055,83.674,52.456,84.068,52.456,84.557"/>
<path fill="#113F7E" d="M55.689,84.557c0,0.485-0.4,0.883-0.896,0.883s-0.895-0.397-0.895-0.883c0-0.488,0.399-0.883,0.895-0.883
	S55.689,84.068,55.689,84.557"/>
<path fill="#113F7E" d="M58.726,84.557c0,0.485-0.4,0.883-0.896,0.883c-0.493,0-0.896-0.397-0.896-0.883
	c0-0.488,0.402-0.883,0.896-0.883C58.325,83.674,58.726,84.068,58.726,84.557"/>
<rect y="8.25" fill="none" width="46.5" height="14.688"/>
</svg>
