<?xml version="1.0" encoding="utf-8"?>
<!-- Generator: Adobe Illustrator 17.0.0, SVG Export Plug-In . SVG Version: 6.00 Build 0)  -->
<!DOCTYPE svg PUBLIC "-//W3C//DTD SVG 1.1//EN" "http://www.w3.org/Graphics/SVG/1.1/DTD/svg11.dtd">
<svg version="1.1" id="图层_1" xmlns="http://www.w3.org/2000/svg" xmlns:xlink="http://www.w3.org/1999/xlink" x="0px" y="0px"
	 width="86.209px" height="85.863px" viewBox="0 0 86.209 85.863" enable-background="new 0 0 86.209 85.863" xml:space="preserve">
<g>
	<g>
		<path fill="#595757" d="M41.839,4.828v2.095h-2.265v-4.19h2.378V0.184h-6.909v7.079h-2.378v8.948h-2.322V9.415h-4.644v4.53h-2.548
			v2.209h-2.039l-0.113,2.435h-9.344v2.378H9.276v2.435h2.435v2.322h4.587v-2.378h-2.322v-2.378h2.322v2.378h2.435v-2.265h2.322
			v2.322h4.587v2.492h4.644v2.209h2.548v-2.435h-2.662v-2.378h-2.209v-2.265h2.322v2.322h4.53v-2.265h-2.209v-2.435h2.378v-6.852
			h2.322V7.32h2.322v2.322h2.322V7.32h2.322V4.828H41.839z M27.964,18.646h-2.378v2.435H23.32l0.057-4.587h2.492v-2.548h2.095
			C27.964,13.946,27.964,18.646,27.964,18.646z"/>
		<polygon fill="#595757" points="23.49,9.642 23.49,4.885 28.134,4.885 28.134,2.619 30.229,2.619 30.229,4.771 32.834,4.771 
			32.834,0.184 27.851,0.184 27.851,2.45 23.264,2.45 23.264,4.715 21.055,4.715 21.055,2.28 18.677,2.28 18.564,16.154 
			21.112,16.154 21.112,9.642 		"/>
		<polygon fill="#595757" points="4.699,18.617 7.173,18.617 7.173,23.298 9.276,23.298 9.276,25.773 2.492,25.773 2.492,32.593 
			4.766,32.593 4.766,30.32 7.039,30.32 7.039,28.046 9.513,28.046 9.513,30.453 7.307,30.453 7.307,34.867 4.899,34.867 
			4.899,39.414 2.693,39.414 2.693,41.554 4.833,41.554 4.899,39.414 9.179,39.414 9.179,32.46 11.52,32.46 11.52,30.052 
			13.927,30.052 13.927,28.046 16.267,28.046 16.267,30.387 14.194,30.387 14.194,32.393 16.334,32.393 16.334,34.733 
			18.942,34.733 18.942,37.274 16.267,37.274 16.267,35.134 14.061,35.134 14.061,32.593 11.854,32.593 11.854,37.207 
			16.267,37.274 16.267,39.481 14.128,39.481 14.128,41.487 18.675,41.487 18.675,46.235 16.468,46.235 16.468,44.162 
			14.128,44.162 14.128,46.569 11.854,46.569 11.854,48.642 9.313,48.642 9.313,44.295 7.24,44.295 7.24,48.642 2.492,48.642 
			2.492,51.183 -0.049,51.183 -0.049,46.435 4.632,46.435 4.632,44.162 2.358,44.162 2.358,41.955 0.085,41.955 0.085,39.481 
			2.292,39.481 2.292,37.207 0.085,37.207 0.085,23.298 2.492,23.298 2.492,21.359 4.766,21.359 		"/>
		<polygon fill="#595757" points="18.92,27.978 21.023,27.978 21.023,30.377 23.219,30.377 23.219,27.826 30.162,27.826 
			30.162,29.952 25.84,29.952 25.84,34.911 28.037,34.911 28.037,32.502 30.446,32.502 30.446,30.023 34.98,30.023 34.98,37.178 
			28.178,37.178 28.178,39.446 30.091,39.446 30.091,44.051 31.933,44.051 31.933,46.601 30.375,46.601 30.375,44.405 
			27.824,44.405 27.824,39.658 25.77,39.658 25.77,37.178 23.361,37.178 23.361,39.658 25.274,39.658 25.274,44.122 27.257,44.122 
			27.257,46.743 29.808,46.743 29.808,48.514 27.966,48.514 27.966,51.136 34.909,51.136 34.909,58.079 44.049,58.079 
			44.049,60.346 41.852,60.346 41.852,62.684 44.332,62.684 44.332,66.864 46.812,66.864 46.812,65.093 49.15,65.093 49.15,60.346 
			51.417,60.346 51.417,55.883 53.755,55.883 53.755,62.472 51.559,62.472 51.559,67.148 48.937,67.148 48.937,69.486 
			42.207,69.486 42.207,67.431 37.176,67.431 37.176,65.093 39.727,65.093 39.727,62.543 37.105,62.543 37.105,60.205 
			30.233,60.205 30.233,62.613 36.83,62.613 36.83,64.832 30.197,64.832 30.197,69.587 27.907,69.587 27.907,65.243 25.794,65.243 
			25.794,62.836 28.083,62.836 28.083,58.022 30.314,58.022 30.314,53.267 28.024,53.267 28.083,58.022 25.559,58.022 
			25.559,53.385 23.504,53.385 23.504,57.787 18.749,57.787 18.749,55.791 20.804,55.791 20.804,51.095 25.559,51.095 
			25.559,46.281 23.269,46.281 23.269,41.82 20.862,41.82 20.862,34.892 23.328,34.892 23.328,32.486 20.98,32.486 21.023,30.377 
			18.749,30.377 		"/>
		<polygon fill="#595757" points="83.444,39.607 83.444,37.209 81.175,37.209 81.175,39.413 78.841,39.413 78.841,44.016 
			74.497,44.016 74.497,39.543 72.099,39.543 72.099,37.274 74.303,37.274 74.303,34.81 76.507,34.81 76.507,37.014 78.776,37.014 
			78.776,35.069 81.24,35.069 81.24,29.883 78.971,29.883 78.971,32.671 74.433,32.671 74.433,34.421 72.099,34.421 72.099,36.885 
			69.635,36.885 69.635,39.478 67.496,39.478 67.496,37.209 69.311,37.209 69.311,34.875 71.515,34.875 71.515,32.541 
			74.044,32.541 74.044,30.272 71.904,30.272 71.904,27.938 67.561,27.938 67.561,30.466 62.893,30.466 62.893,35.069 
			64.903,35.069 64.903,32.93 67.236,32.93 67.236,34.745 65.292,34.745 65.292,37.209 62.763,37.209 62.763,42.071 60.3,42.071 
			60.3,45.896 58.355,45.896 58.355,44.275 56.021,44.275 56.021,42.006 57.966,42.006 57.966,34.875 55.891,34.875 55.891,32.735 
			60.429,32.735 60.429,30.142 55.956,30.142 55.956,25.863 58.355,25.863 58.355,23.205 48.825,23.205 48.825,18.667 
			51.158,18.667 51.158,21.131 53.557,21.131 53.557,11.925 51.288,11.925 51.288,6.933 49.019,6.933 49.019,4.923 53.687,4.923 
			53.687,2.524 55.761,2.524 55.761,4.794 58.031,4.794 58.031,9.332 55.891,9.332 55.891,7.063 53.428,7.063 53.428,9.267 
			55.632,9.267 55.632,11.795 58.095,11.795 58.095,9.591 60.429,9.591 60.429,7.387 62.893,7.387 62.893,0.191 57.901,0.191 
			57.901,2.395 55.761,2.395 55.761,0.191 53.363,0.191 53.363,2.265 49.019,2.265 49.019,0.191 46.556,0.191 46.556,7.063 
			48.695,7.063 48.695,13.87 51.223,13.87 51.223,16.528 48.825,16.528 48.825,14.129 46.62,14.129 46.62,16.593 44.286,16.593 
			44.286,11.406 39.489,11.406 39.489,13.61 37.164,13.61 37.164,16.342 39.479,16.342 39.479,13.91 41.795,13.91 41.795,18.773 
			34.986,18.773 34.986,21.081 39.363,21.081 39.363,25.603 41.795,25.603 41.795,20.857 43.994,20.857 43.994,18.888 
			46.425,18.888 46.425,25.487 44.457,25.487 44.457,31.739 46.194,31.739 46.194,30.349 48.741,30.349 48.741,37.064 
			54.413,37.064 56.034,37.064 56.034,41.695 52.908,41.695 52.908,44.357 55.913,44.357 55.913,46.646 58.099,46.646 
			58.099,48.492 53.144,48.492 53.144,53.302 60.285,53.302 60.285,51.018 58.099,51.018 58.099,48.735 60.674,48.735 
			60.674,46.354 64.95,46.354 64.95,48.54 62.86,48.54 62.86,53.399 60.528,53.399 60.528,55.585 69.662,55.585 69.662,57.966 
			71.994,57.966 71.994,62.581 74.423,62.581 74.423,53.447 76.707,53.447 76.707,51.147 81.434,51.147 81.434,48.943 
			83.898,48.943 83.898,46.674 85.972,46.674 85.972,39.607 		"/>
		<polygon fill="#595757" points="9.808,51.101 11.818,51.101 11.818,53.389 13.897,53.389 13.897,50.937 16.403,50.937 
			16.403,53.335 18.801,53.335 18.801,55.791 16.456,55.791 16.456,53.389 14.164,53.389 14.164,55.681 16.243,55.681 
			16.243,57.706 14.057,57.706 14.057,60.425 16.403,60.425 16.403,58.08 18.855,58.08 18.855,62.664 11.818,62.664 11.818,60.318 
			9.313,60.318 9.313,58.026 11.818,58.026 11.818,55.734 9.313,55.734 9.313,51.203 6.861,51.203 6.861,48.642 9.808,48.642 		"/>
		<polygon fill="#595757" points="60.44,28.057 62.489,28.057 62.489,25.7 64.948,25.7 64.948,23.241 67.407,23.241 67.407,25.905 
			74.066,25.905 74.066,20.783 83.594,20.783 83.594,23.344 81.443,23.344 81.443,25.905 83.492,25.905 83.492,27.852 
			81.443,27.852 81.443,30.413 83.696,30.413 83.696,35.331 85.95,35.331 85.95,20.783 84.106,20.783 84.106,18.221 71.915,18.221 
			71.915,20.68 69.661,20.68 69.661,23.446 67.407,23.241 67.407,21.192 62.797,21.192 62.797,25.188 60.44,25.188 		"/>
		<polygon fill="#595757" points="74.374,28.159 76.627,28.159 76.627,25.495 78.984,25.495 78.984,30.31 74.374,30.31 		"/>
		<polygon fill="#595757" points="62.899,18.631 67.304,18.631 67.304,11.87 65.153,11.87 65.153,16.172 62.797,16.172 
			62.797,14.226 60.543,14.226 60.543,16.582 62.719,16.582 		"/>
		<polygon fill="#595757" points="55.926,14.135 58.19,14.191 58.19,18.55 60.398,18.55 60.398,21.437 58.133,21.437 58.133,18.946 
			55.756,18.946 		"/>
		<polygon fill="#595757" points="69.662,58.093 67.598,58.093 67.598,60.349 65.255,60.349 65.255,58.006 62.739,58.006 
			62.739,62.518 60.57,62.518 60.57,60.696 58.227,60.696 58.227,57.659 60.57,57.659 60.57,55.837 55.885,55.837 55.798,62.865 
			53.542,62.865 53.542,64.774 55.885,64.774 55.885,69.546 58.227,69.546 58.227,72.236 60.57,72.236 60.57,66.943 58.054,66.943 
			58.054,62.865 60.396,62.865 60.396,65.121 65.255,65.121 65.255,62.345 69.662,62.345 		"/>
		<polygon fill="#595757" points="76.707,53.447 79.051,53.447 79.051,55.664 81.741,55.664 81.741,53.581 83.737,53.581 
			83.737,51.412 85.906,51.412 85.906,55.751 83.65,55.751 83.65,57.659 85.906,57.659 85.906,65.035 81.047,65.035 81.047,62.779 
			83.91,62.779 83.91,60.349 81.134,60.349 81.134,57.92 76.535,57.92 		"/>
		<path fill="#595757" d="M78.878,69.373v-2.256h-2.256v-1.996h2.256v-4.685h-2.082l-0.434,4.165h-4.367v-1.822h-2.748v2.343h-4.338
			v7.115h-4.512v4.252h2.169v4.252h2.603v-4.512h6.681v2.69h2.169v-2.082h2.516v-2.69h2.516v-2.429h2.082v-2.343h-2.255V69.373z
			 M74.192,74.145h-6.768V67.29h6.768V74.145z"/>
		<polygon fill="#595757" points="0.246,60.362 2.498,60.362 2.498,58.204 0.246,58.204 0.246,55.858 2.498,55.858 2.498,57.922 
			4.938,57.922 4.938,60.644 9.442,60.644 9.442,62.239 11.818,62.239 11.818,65.054 9.254,65.054 9.254,67.118 7.002,67.118 
			7.002,64.678 4.938,64.678 4.938,67.306 0.246,67.306 0.246,64.866 4.469,64.866 4.469,62.52 0.246,62.52 		"/>
		<polygon fill="#595757" points="18.825,67.306 21.171,67.306 21.171,64.772 19.013,64.772 19.013,62.664 21.171,62.664 
			21.171,60.456 22.954,60.456 22.954,57.787 25.559,57.787 25.559,62.52 23.517,62.52 23.517,67.306 25.769,67.306 25.769,69.37 
			27.907,69.37 27.907,71.81 25.957,71.81 25.957,69.933 21.171,69.933 21.171,74.343 18.825,74.343 		"/>
		<polygon fill="#595757" points="18.825,78.941 20.983,78.941 20.983,76.407 23.329,76.407 23.329,71.81 25.957,71.81 
			25.957,74.155 28.115,74.155 28.115,71.81 30.179,71.81 30.179,76.407 27.739,76.407 27.739,78.847 25.769,78.847 25.769,76.689 
			23.423,76.689 23.423,81.005 28.021,81.005 28.021,83.351 25.487,83.351 25.487,85.603 23.142,85.603 23.142,81.287 
			18.825,81.287 		"/>
		<polygon fill="#595757" points="53.587,78.651 60.264,78.651 60.264,81.062 58.131,81.062 58.131,83.844 55.906,83.844 
			55.906,81.34 53.402,81.34 		"/>
		<polygon fill="#595757" points="60.727,81.248 62.675,81.248 62.675,83.751 64.807,83.751 64.807,81.248 67.682,81.248 
			67.682,78.929 69.629,78.929 69.629,81.526 67.711,81.526 67.711,85.668 60.725,85.668 		"/>
		<polygon fill="#595757" points="69.751,83.368 72.051,83.368 72.051,80.982 74.134,80.982 74.134,78.682 76.694,78.682 
			76.694,76.643 81.337,76.643 81.337,78.856 78.993,78.856 78.993,81.069 76.564,81.069 76.564,83.455 79.037,83.455 
			79.037,86.015 74.307,86.015 74.307,83.412 72.094,83.412 72.094,85.755 69.794,85.755 		"/>
		<polygon fill="#595757" points="81.64,76.469 83.593,76.469 83.593,71.869 86.11,71.869 86.11,67.27 81.51,67.27 81.51,69.57 
			83.593,69.57 83.593,71.696 81.134,71.696 81.134,76.469 		"/>
		<polygon fill="#595757" points="83.768,76.693 83.711,78.842 81.41,78.842 81.41,81.086 85.993,81.086 85.993,76.427 
			83.749,76.427 		"/>
		<polygon fill="#595757" points="48.925,72.005 51.306,72.005 51.306,69.58 53.552,69.58 53.552,72.095 55.842,72.095 
			55.842,74.072 53.192,74.072 53.192,76.812 58.313,76.812 58.313,71.736 55.977,71.736 55.977,69.4 53.552,69.4 53.552,67.289 
			51.216,67.289 51.216,69.175 48.88,69.175 		"/>
		<polygon fill="#595757" points="46.544,74.207 51.126,74.207 51.126,76.318 48.925,76.318 48.925,78.923 51.261,78.923 
			51.261,81.439 48.97,81.439 48.97,83.864 46.274,83.864 46.274,81.169 48.61,81.169 48.61,79.103 46.589,79.103 		"/>
		<polygon fill="#595757" points="35.012,71.697 39.4,71.697 39.4,69.438 41.853,69.438 41.853,72.019 44.306,72.019 44.306,74.278 
			41.659,74.278 41.659,72.471 39.336,72.471 39.336,76.795 37.206,76.795 37.206,81.313 39.723,81.313 39.723,79.119 
			41.853,79.119 41.853,81.313 44.177,81.313 44.177,83.895 32.624,83.895 32.624,85.831 28.17,85.831 28.17,83.443 32.624,83.443 
			32.624,81.378 30.558,81.378 30.558,76.344 32.43,76.344 32.43,80.797 34.753,80.797 34.753,76.537 37.012,76.537 37.012,74.472 
			34.883,74.472 34.883,76.279 32.688,76.279 32.688,74.02 35.012,74.02 		"/>
		<polygon fill="#595757" points="4.645,55.657 6.986,55.657 6.986,58.193 9.313,58.193 9.313,55.734 7.182,55.734 7.182,53.023 
			4.645,53.023 		"/>
		<polygon fill="#595757" points="18.889,48.828 21.132,48.828 21.132,46.681 23.279,46.681 23.279,48.736 21.311,48.736 
			21.311,51.095 18.834,51.095 		"/>
		<polygon fill="#595757" points="41.97,55.65 44.132,55.65 44.132,57.997 46.664,57.997 46.664,55.897 48.949,55.897 
			48.949,54.291 41.908,54.291 		"/>
		<polygon fill="#595757" points="36.757,30.298 39.24,30.298 39.24,31.788 41.972,31.788 41.972,27.691 39.489,27.691 
			39.489,25.603 37.254,25.603 37.254,23.221 34.816,23.221 34.816,25.456 36.757,25.456 		"/>
		<rect x="18.785" y="23.463" fill="#595757" width="2.539" height="2.539"/>
		<rect x="14.259" y="46.758" fill="#595757" width="2.318" height="2.318"/>
		<rect x="14.038" y="64.754" fill="#595757" width="2.65" height="2.65"/>
		<rect x="32.585" y="67.183" fill="#595757" width="4.527" height="2.539"/>
		<rect x="37.333" y="54.265" fill="#595757" width="2.429" height="1.435"/>
		<rect x="65.154" y="2.487" fill="#595757" width="1.987" height="6.845"/>
		<rect x="67.583" y="18.826" fill="#595757" width="2.098" height="2.098"/>
		<rect x="60.517" y="34.998" fill="#595757" width="2.375" height="2.375"/>
		<rect x="69.902" y="69.28" fill="#595757" width="2.429" height="2.429"/>
		<rect x="51.133" y="83.301" fill="#595757" width="2.65" height="2.65"/>
		<rect x="83.812" y="83.522" fill="#595757" width="2.429" height="2.429"/>
		<path fill="#595757" d="M69.561,0v16.647h16.647V0H69.561z M83.493,14.05H72.041V2.597h11.452V14.05z"/>
		<rect x="74.52" y="4.841" fill="#595757" width="6.966" height="6.966"/>
		<path fill="#595757" d="M0,0v16.647h16.647V0H0z M13.932,14.05H2.479V2.597h11.452V14.05H13.932z"/>
		<rect x="4.959" y="4.841" fill="#595757" width="6.966" height="6.966"/>
		<path fill="#595757" d="M0,69.215v16.647h16.647V69.215H0z M13.932,83.265H2.479V71.813h11.452v11.452H13.932z"/>
		<rect x="4.959" y="74.056" fill="#595757" width="6.966" height="6.966"/>
		<g>
			<path fill="#898989" d="M53.443,53.971c0,0.573-0.464,1.037-1.037,1.037H32.622c-0.573,0-1.037-0.464-1.037-1.037V34.188
				c0-0.573,0.464-1.037,1.037-1.037h19.783c0.573,0,1.037,0.464,1.037,1.037L53.443,53.971L53.443,53.971z"/>
			<path fill="#FFFFFF" d="M52.95,53.525c0,0.547-0.443,0.991-0.991,0.991H33.068c-0.547,0-0.991-0.443-0.991-0.991V34.633
				c0-0.547,0.443-0.991,0.991-0.991H51.96c0.547,0,0.991,0.443,0.991,0.991L52.95,53.525L52.95,53.525z"/>
			<g>
				<path fill="#13438B" d="M48.132,41.37c1.519-1.558,1.495-4.046-0.045-5.577c-1.53-1.54-4.018-1.563-5.576-0.045
					c-0.746,0.727-0.903,1.356-1.094,2.178c-0.121,0.521-0.401,1.039-0.774,1.469c-0.43,0.374-0.947,0.653-1.469,0.774
					c-0.822,0.191-1.452,0.348-2.178,1.094c-0.005,0.005-0.01,0.011-0.015,0.016c-0.013,0.013-0.026,0.024-0.039,0.037
					c-1.54,1.53-1.563,4.018-0.045,5.576c0.727,0.746,1.356,0.903,2.178,1.094c0.522,0.121,1.039,0.401,1.469,0.774
					c0.374,0.43,0.653,0.947,0.774,1.469c0.191,0.822,0.348,1.452,1.094,2.178c1.558,1.519,4.046,1.495,5.576-0.045
					c1.54-1.53,1.563-4.018,0.045-5.576c-0.727-0.746-1.356-0.903-2.178-1.094c-0.522-0.121-1.039-0.401-1.469-0.774
					c-0.196-0.225-0.365-0.475-0.5-0.736c0.146-0.337,0.351-0.66,0.598-0.945c0.43-0.374,0.947-0.653,1.469-0.774
					c0.615-0.143,1.121-0.267,1.642-0.631"/>
				<g>
					<path fill="#40BFEC" d="M38.521,40.951c0,0-0.614-1.127,1.727-1.741c0,0,3.839-0.842,4.153-1.741c0,0,0.714,1.127-2.155,1.755
						C42.246,39.224,38.849,39.924,38.521,40.951z"/>
					<path fill="#D3D5E4" d="M38.482,43.114c0,0-0.614-1.127,1.727-1.741c0,0,3.839-0.842,4.153-1.741c0,0,0.714,1.127-2.155,1.755
						C42.207,41.387,38.81,42.086,38.482,43.114z"/>
					<path fill="#40BFEC" d="M38.205,48.274c0,0,0.027-1.574,4.529-2.108c0,0,1.501-0.28,1.59-1.017c0,0,0.623-1.335-2.047-2.2
						c0,0-3.519-1.045-3.756-1.998c0,0-0.377,1.019,1.403,1.731c0,0,3.205,1.005,3.739,1.679c0,0,1.005,0.979-1.704,1.399
						c0,0-1.768,0.292-2.442,0.56C39.517,46.319,37.959,46.737,38.205,48.274z"/>
					<path fill="#D3D5E4" d="M38.205,50.369c0,0,0.027-1.574,4.529-2.108c0,0,1.501-0.28,1.59-1.017c0,0,0.623-1.335-2.047-2.2
						c0,0-3.519-1.045-3.756-1.998c0,0-0.377,1.019,1.403,1.731c0,0,3.205,1.005,3.739,1.679c0,0,1.005,0.979-1.704,1.399
						c0,0-1.768,0.292-2.442,0.56C39.517,48.414,37.959,48.832,38.205,50.369z"/>
				</g>
			</g>
		</g>
	</g>
</g>
</svg>
