<?xml version="1.0" encoding="utf-8"?>
<!-- Generator: Adobe Illustrator 17.0.0, SVG Export Plug-In . SVG Version: 6.00 Build 0)  -->
<!DOCTYPE svg PUBLIC "-//W3C//DTD SVG 1.1//EN" "http://www.w3.org/Graphics/SVG/1.1/DTD/svg11.dtd">
<svg version="1.1" id="图层_1" xmlns="http://www.w3.org/2000/svg" xmlns:xlink="http://www.w3.org/1999/xlink" x="0px" y="0px"
	 width="120.47px" height="119.999px" viewBox="0 0 120.47 119.999" enable-background="new 0 0 120.47 119.999"
	 xml:space="preserve">
<g>
	<circle fill="#EFBD78" cx="60.496" cy="59.882" r="60.229"/>
	<path opacity="0.6" fill="#D06D12" enable-background="new    " d="M39.764,94.051l13.899-18.285l-8.335-29.241l-6.883-15.523
		l8.619-6.558l11.354-2.94l11.743,1.492l10.326,4.637l39.77,39.77c-3.494,28.048-26.274,50.105-54.652,52.49L39.764,94.051z"/>
	<path fill="#213F51" d="M42.053,90.987L42.053,90.987c-0.561-0.406-0.688-1.196-0.282-1.757l7.887-10.901
		c0.406-0.561,1.196-0.688,1.757-0.282l0,0c0.561,0.406,0.688,1.196,0.282,1.757l-7.886,10.9
		C43.405,91.266,42.614,91.393,42.053,90.987z"/>
	<path fill="#213F51" d="M78.417,90.987L78.417,90.987c0.561-0.406,0.688-1.196,0.282-1.757l-7.887-10.9
		c-0.406-0.561-1.196-0.688-1.757-0.282l0,0c-0.561,0.406-0.688,1.196-0.282,1.757l7.886,10.9
		C77.065,91.266,77.856,91.393,78.417,90.987z"/>
	<path fill="#213F51" d="M49.168,51.003L49.168,51.003c0.561-0.406,0.688-1.196,0.282-1.757l-7.887-10.901
		c-0.406-0.561-1.196-0.688-1.757-0.282l0,0c-0.561,0.406-0.688,1.196-0.282,1.757l7.886,10.901
		C47.817,51.281,48.607,51.408,49.168,51.003z"/>
	<path fill="#213F51" d="M71.087,51.003L71.087,51.003c-0.561-0.406-0.687-1.196-0.282-1.757l7.886-10.901
		c0.406-0.561,1.196-0.688,1.757-0.282l0,0c0.561,0.406,0.688,1.196,0.282,1.757l-7.886,10.901
		C72.438,51.281,71.648,51.408,71.087,51.003z"/>
	<g>
		<path fill="#213F51" d="M60.496,92.456c14.848,0,26.959-12.11,26.959-26.959c0-14.848-12.111-26.959-26.959-26.959
			c-14.849,0-26.959,12.111-26.959,26.959C33.536,80.345,45.647,92.456,60.496,92.456z"/>
		<path fill="#F5A347" d="M60.496,87.429c12.08,0,21.933-9.853,21.933-21.933s-9.853-21.933-21.933-21.933
			s-21.933,9.853-21.933,21.933C38.563,77.577,48.415,87.429,60.496,87.429z"/>
		<path fill="#FFFFFF" d="M45.272,31.906c3.75,0,7.112,1.657,9.395,4.279c-8.616,1.704-15.901,7.111-20.126,14.495
			c-1.094-1.853-1.722-4.014-1.722-6.321C32.819,37.481,38.394,31.906,45.272,31.906L45.272,31.906z M75.719,31.906
			c6.877,0,12.453,5.575,12.453,12.453c0,2.307-0.629,4.468-1.722,6.321c-4.224-7.384-11.509-12.791-20.125-14.495
			C68.607,33.563,71.97,31.906,75.719,31.906z"/>
		<path fill="#FFFFFF" d="M47.749,92.529c-0.766,1.736-2.501,2.947-4.52,2.947c-2.728,0-4.938-2.211-4.938-4.938
			c0-1.379,0.565-2.625,1.476-3.521C42.096,89.261,44.789,91.131,47.749,92.529z"/>
		<path fill="#FFFFFF" d="M81.224,87.017c0.911,0.896,1.476,2.142,1.476,3.521c0,2.727-2.211,4.938-4.938,4.938
			c-2.019,0-3.754-1.212-4.52-2.947C76.201,91.13,78.895,89.261,81.224,87.017z"/>
		<path fill="#213F51" d="M60.496,49.525L60.496,49.525c0.692,0,1.259,0.566,1.259,1.259v13.454c0,0.692-0.566,1.258-1.258,1.258
			l0,0c-0.692,0-1.259-0.566-1.259-1.258V50.784C59.237,50.092,59.803,49.525,60.496,49.525z"/>
		<path fill="#213F51" d="M50.438,56.521L50.438,56.521c0.461-0.516,1.26-0.562,1.777-0.101l8.179,7.299
			c0.517,0.46,0.562,1.26,0.101,1.777l0,0c-0.461,0.517-1.261,0.562-1.777,0.101l-8.179-7.299
			C50.023,57.837,49.978,57.038,50.438,56.521z"/>
		<circle fill="#003956" cx="60.496" cy="46.834" r="1.391"/>
		<circle fill="#213F51" cx="79.886" cy="66.037" r="1.391"/>
		<circle fill="#213F51" cx="60.683" cy="85.427" r="1.391"/>
		<circle fill="#213F51" cx="41.293" cy="66.224" r="1.391"/>
		<path fill="#FFFFFF" d="M60.496,22.511c10.099,0,18.683,4.717,21.825,11.289c1.344,0.842,2.515,1.933,3.45,3.209
			c-1.543-9.332-12.27-16.559-25.275-16.559S36.763,27.676,35.22,37.008c0.935-1.275,2.106-2.367,3.45-3.209
			C41.812,27.227,50.397,22.511,60.496,22.511z"/>
		<path fill="#213F51" d="M60.496,68.75c1.792,0,3.253-1.462,3.253-3.253s-1.461-3.253-3.253-3.253s-3.253,1.461-3.253,3.253
			S58.704,68.75,60.496,68.75z"/>
	</g>
</g>
</svg>
